<?xml version="1.0" encoding="utf-8"?>
<!-- Generator: Adobe Illustrator 27.5.0, SVG Export Plug-In . SVG Version: 6.00 Build 0)  -->
<svg version="1.1" xmlns="http://www.w3.org/2000/svg" xmlns:xlink="http://www.w3.org/1999/xlink" x="0px" y="0px"
	 viewBox="0 0 500 500" style="enable-background:new 0 0 500 500;" xml:space="preserve">
<g id="BACKGROUND">
	<rect style="fill:#00000000" width="500" height="500"/>
</g>
<g id="OBJECTS">
	<g>
		<g>
			<path style="fill:#F9A871;" d="M138.08,352.5c-0.07,1.27-0.15,2.55-0.23,3.82c-0.01,0.17,0.02,0.32,0.06,0.45
				c-7.11,0.61-17.36-1.58-19.02-8.78c-0.32-1.32-0.33-2.82,0.01-4.49c1.92-9.33,13.14-10.11,20.44-13.62
				C138.76,337.41,138.51,344.95,138.08,352.5z"/>
			<path style="fill:#F9A871;" d="M139.46,221.78v0.51c-0.38,5.39-0.43,10.84-0.85,16.23c-0.21,2.92-0.55,5.81-1.1,8.68
				c-7.1-1.69-14.47-2.21-21.72-1.76c-6.14,0.38-20.14,0.92-17.48-9.23c0.42-1.62,1.34-3.04,2.57-4.28c4.18-4.23,12-6.49,16.69-7.69
				c4.29-1.1,8.7-1.74,13.1-2.15C133.49,221.82,136.63,222.22,139.46,221.78z"/>
			<path style="fill:#F9A871;" d="M139.1,296.91c-0.92,4.99-1.22,10.13-1.49,15.26c-0.14,2.65-0.27,5.29-0.47,7.9
				c-7.37,1.23-15.06,1.73-22.41,0.42c-3.74-0.66-7.49-1.95-10.21-4.69c-3-3.02-2.8-7.4-2.19-11.32c0.96,0.02,1.91,0,2.83-0.07
				c0.2-0.01,0.41-0.02,0.61-0.04c5.2-0.39,10.29-1.71,15.28-3.16C126.97,299.49,133.04,298.1,139.1,296.91z"/>
			<path style="fill:#E3DAF2;" d="M274.229,430.942c-0.682-0.673-1.949-0.722-2.885-0.756c-0.41-0.015-0.814-0.027-1.219-0.04
				c-1.557,0.093-3.142,0.163-4.735,0.216c-4.816,0.253-9.776-0.04-14.56,0.039c-3.794,0.063-8.011,0.432-11.909,0.054
				c-3.76,0.022-7.53-0.089-11.166-0.309c-0.404,0.013-0.809,0.025-1.219,0.04c-0.935,0.034-2.203,0.083-2.884,0.756
				c-0.485,0.479-0.679,1.045-0.826,1.632c0.119,0.964,0.044,1.969,0.026,2.927c-0.002,0.158-0.004,0.317-0.005,0.476
				c0.001,0.157,0.002,0.316,0.005,0.475c0.018,0.958,0.093,1.963-0.026,2.927c0.146,0.587,0.34,1.153,0.826,1.632
				c0.681,0.672,1.949,0.722,2.884,0.756c0.41,0.016,0.814,0.027,1.219,0.04c3.637-0.22,7.407-0.33,11.166-0.31
				c3.897-0.378,8.115-0.008,11.909,0.056c4.784,0.078,9.744-0.215,14.56,0.038c1.594,0.053,3.179,0.122,4.735,0.216
				c0.404-0.013,0.809-0.024,1.219-0.04c0.936-0.034,2.203-0.084,2.885-0.756c0.485-0.478,0.679-1.045,0.825-1.632
				c-0.118-0.964-0.044-1.969-0.025-2.927c0.002-0.158,0.004-0.317,0.005-0.475c-0.001-0.158-0.003-0.317-0.005-0.476
				c-0.019-0.958-0.093-1.963,0.025-2.927C274.908,431.987,274.715,431.422,274.229,430.942z"/>
			<path style="fill:#F9A871;" d="M139.38,264.22v0.01c-0.88,7.19-1.82,14.54-2.24,21.85c-0.17,2.91-0.26,5.82-0.23,8.7
				c-8.9,1.17-17.57,5.52-26.37,7.08c-0.22,0.04-0.43,0.08-0.65,0.11c-0.01,0.01-0.02,0.01-0.03,0.01c-1.22,0.19-2.48,0.34-3.75,0.4
				c-3.11,0.15-6.27-0.23-8.96-1.72c-3-1.66-4.26-4.85-4.44-8.12c-0.08-1.47,0.06-2.95,0.36-4.32c2.09-9.59,13.71-14.88,21.83-18.22
				c7.94-3.26,16.54-4.8,24.47-7.99C139.38,262.75,139.37,263.48,139.38,264.22z"/>
			<path style="fill:#A0F9F4;" d="M339.94,393.72c2.3,6.46,5.69,13.45,10.85,18.31c0,0.01,0,0.01,0,0.01
				c-0.83,3.57-1.88,6.56-4.74,8.91c-0.22,0.19-0.45,0.37-0.7,0.55c-2.83,2.04-6,2.04-9.17,2.62c-6.65-0.47-13.48-0.06-20.12-0.06
				c-8.32,0-16.64,0.01-24.96,0.01H266c-5.63,0-11.37-0.24-17.06-0.11c-5.69-0.13-11.42,0.11-17.05,0.11h-25.11
				c-8.32,0-16.64-0.01-24.96-0.01c-6.64,0-13.46-0.41-20.12,0.06c-3.17-0.58-6.34-0.58-9.16-2.62c-3.4-2.44-4.55-5.61-5.45-9.46
				c0.98-16.5,0.45-33.14,0.48-49.66c0.03-16.58,0.09-33.15,0.11-49.73v-7.32c0.54-14.02,0.04-28.16,0.03-42.18v-0.09
				c0.01-14.02,0.51-28.16-0.03-42.19v-7.31c-0.02-16.58-0.08-33.15-0.11-49.73c-0.03-16.52,0.5-33.17-0.48-49.67
				c0.9-3.84,2.05-7.01,5.45-9.45c2.82-2.04,5.99-2.04,9.16-2.62c6.66,0.47,13.48,0.06,20.12,0.06c8.32-0.01,16.64-0.01,24.96-0.01
				h25.11c5.63-0.01,11.36,0.24,17.05,0.1c5.69,0.14,11.43-0.11,17.06-0.1h25.1c8.32,0,16.64,0,24.96,0.01
				c6.64,0,13.47,0.41,20.12-0.06c3.17,0.58,6.34,0.58,9.17,2.62c3.39,2.44,4.54,5.61,5.44,9.45c-0.98,16.5-0.45,33.15-0.48,49.67
				c-0.03,16.58-0.09,33.15-0.1,49.73c-0.01,2.44-0.01,4.87-0.01,7.31c-0.54,14.03-0.04,28.17-0.03,42.19v0.09
				c-0.01,14.02-0.51,28.16,0.03,42.18l0.01,7.32c0,2.37,0,4.74,0.01,7.11c-9.1-2.88-18.72-4.44-28.31-5.45
				c-10.49-1.1-21.04-1.48-31.56-2.13c-8.54-0.52-20.41-3.85-27.35,2.83c-0.14,0.14-0.21,0.3-0.25,0.45
				c-3.06,2.58-4.55,6.74-2.79,10.67c0.42,0.94,0.95,1.82,1.56,2.65c1.25,1.72,2.86,3.2,4.62,4.51c4.33,7.09,13.19,10.14,20.8,12.35
				c11.02,3.19,22.58,4.74,33.85,6.75c0.15,0.03,0.29,0.03,0.42,0.02c0.49,0.33,0.98,0.65,1.47,0.97
				c2.88,6.41,5.78,12.77,8.33,19.33c2.72,6.98,5.43,13.96,8.83,20.64c0.04,0.06,0.07,0.12,0.1,0.18
				C339.92,393.59,339.92,393.65,339.94,393.72z"/>
			<path style="fill:#BDA6E2;" d="M356.57,416.08c-1.76-0.85-3.36-1.93-4.83-3.19c0.18,3.65-1.51,6.84-4.13,9.13
				c-2.32,2.03-5.37,3.35-8.48,3.63c-0.12,0.1-0.27,0.18-0.47,0.2c-7.97,0.87-16.25,0.28-24.26,0.28l-24.97-0.01h-25.11
				c-5.08,0-10.25,0.2-15.38,0.09c-5.13,0.11-10.29-0.09-15.38-0.09h-25.11l-24.97,0.01c-8.01,0-16.29,0.59-24.26-0.28
				c-0.2-0.02-0.35-0.1-0.47-0.2c-6.83-0.63-13.38-6.21-12.58-13.42c0-0.03-0.01-0.04-0.01-0.06c-0.96-15.99-0.46-32.12-0.49-48.14
				c-0.03-16.57-0.09-33.15-0.11-49.72v-8.99c-0.55-14.04-0.08-28.18-0.04-42.22c-0.04-14.03-0.51-28.17,0.04-42.21v-8.99
				c0.02-16.57,0.08-33.15,0.11-49.73c0.03-16.01-0.47-32.14,0.49-48.13c0-0.02,0.01-0.04,0.01-0.06
				c-0.8-7.21,5.75-12.79,12.58-13.42c0.12-0.1,0.27-0.18,0.47-0.2c7.97-0.87,16.25-0.28,24.26-0.28l24.97,0.01h25.11
				c5.09,0,10.25-0.2,15.38-0.09c5.13-0.11,10.3,0.09,15.38,0.09h25.11l24.97-0.01c8.01,0,16.29-0.59,24.26,0.28
				c0.2,0.02,0.35,0.1,0.47,0.2c6.83,0.63,13.38,6.21,12.58,13.42c0,0.02,0.01,0.04,0.02,0.06c0.95,15.99,0.45,32.12,0.48,48.13
				c0.03,16.58,0.1,33.16,0.11,49.73v8.99c0.55,14.04,0.09,28.18,0.04,42.21c0.05,14.04,0.51,28.18-0.04,42.22v8.99
				c0,2.04-0.01,4.09-0.01,6.13c1.33,0.46,2.65,0.95,3.95,1.47c-0.03-19.22-0.24-38.46-0.14-57.69c-0.1-20.58,0.15-41.18,0.15-61.73
				c0.01-32.34-0.9-64.86,0.56-97.17c0-0.03,0.02-0.06,0.02-0.09c-1.17-6.31-2.85-11.98-7.47-16.72c-4.56-4.66-10.86-6.3-17.15-6.81
				c-18.11,0.9-36.38,0.3-54.5,0.32c-7.38,0.01-14.77,0.07-22.17,0.1c-0.69,0.01-1.38,0.01-2.07,0.01c-1.52,0-3.04,0.01-4.55,0.01
				c-1.51,0-3.03-0.01-4.54-0.01c-0.7,0-1.39,0-2.08-0.01c-7.39-0.03-14.79-0.09-22.17-0.1c-18.12-0.02-36.39,0.58-54.5-0.32
				c-6.29,0.51-12.59,2.15-17.15,6.81c-4.62,4.74-6.3,10.41-7.47,16.72c0,0.03,0.02,0.06,0.02,0.09
				c1.46,32.31,0.55,64.83,0.56,97.17c0,20.55,0.25,41.15,0.15,61.73c0.1,20.58-0.15,41.17-0.15,61.73
				c-0.01,32.33,0.9,64.86-0.56,97.16c0,0.04-0.02,0.06-0.02,0.09c1.17,6.31,2.85,11.99,7.47,16.72c4.56,4.67,10.86,6.31,17.15,6.81
				c18.11-0.89,36.38-0.3,54.5-0.32c7.38,0,14.78-0.07,22.17-0.1h2.08c1.51-0.01,3.03-0.01,4.54-0.01c1.51,0,3.03,0,4.55,0.01h2.07
				c7.4,0.03,14.79,0.1,22.17,0.1c18.12,0.02,36.39-0.57,54.5,0.32c5.89-0.47,11.8-1.94,16.27-5.96c1.06-1.21,2.12-2.42,3.2-3.62
				c2.29-3.23,3.57-6.82,4.47-10.69c0.26-1.07,0.48-2.15,0.68-3.26c0-0.03-0.02-0.05-0.02-0.09
				C356.73,420.77,356.65,418.43,356.57,416.08z M271.53,87.69c0.85-0.5,1.88-0.64,2.83-0.37c0.62,0.17,1.17,0.49,1.62,0.94
				c0.46,0.46,0.77,1,0.95,1.62c0.13,0.34,0.14,0.71,0.15,1.07c0.03,1.63-1.14,3.11-2.7,3.54c-1.73,0.47-3.8-0.49-4.39-2.23
				C269.28,90.62,270,88.58,271.53,87.69z M233.37,87.87c4.9-0.15,10.45-0.7,15.57-0.26c5.12-0.44,10.67,0.11,15.57,0.26
				c4.09,0.13,4.09,6.22,0,6.34c-4.9,0.16-10.45,0.71-15.57,0.26c-5.12,0.45-10.67-0.1-15.57-0.26
				C229.28,94.09,229.28,88,233.37,87.87z M220.95,89.88c0.18-0.62,0.49-1.16,0.95-1.62c0.46-0.45,1-0.77,1.62-0.94
				c0.95-0.27,1.98-0.13,2.83,0.37c1.53,0.89,2.25,2.93,1.54,4.57c-0.59,1.74-2.66,2.7-4.39,2.23c-1.55-0.43-2.72-1.91-2.69-3.54
				C220.81,90.59,220.82,90.22,220.95,89.88z M276.56,437.75c0.02,0.98,0.02,1.97-0.34,2.89c-0.04,0.1-0.11,0.17-0.19,0.21
				c-0.42,0.9-1.23,1.65-2.36,1.96c-1.14,0.31-2.35,0.4-3.56,0.39c-5.83,0.35-11.99,0.42-17.9,0.11c-3.9,0.06-8.21,0.46-12.25,0.18
				c-4.09,0.05-8.22-0.05-12.19-0.29c-1.21,0.01-2.41-0.08-3.56-0.39c-1.13-0.31-1.93-1.06-2.36-1.96
				c-0.08-0.04-0.15-0.11-0.19-0.21c-0.36-0.92-0.36-1.91-0.34-2.89c-0.02-0.59,0-1.18,0.01-1.77c-0.01-0.59-0.03-1.19-0.01-1.78
				c-0.02-0.98-0.02-1.97,0.34-2.89c0.04-0.1,0.11-0.17,0.19-0.21c0.43-0.9,1.23-1.64,2.36-1.96c1.15-0.31,2.35-0.4,3.56-0.39
				c3.97-0.23,8.1-0.34,12.19-0.29c4.04-0.28,8.35,0.13,12.25,0.19c5.91-0.32,12.07-0.25,17.9,0.1c1.21-0.01,2.42,0.08,3.56,0.39
				c1.13,0.32,1.94,1.06,2.36,1.96c0.08,0.04,0.15,0.11,0.19,0.21c0.36,0.92,0.36,1.91,0.34,2.89c0.02,0.59,0,1.19-0.01,1.78
				C276.56,436.57,276.58,437.16,276.56,437.75z"/>
			<path style="fill:#F9A871;" d="M410.41,404.04c-0.52,3.88-1.55,7.74-3.21,11.55c-6.23,14.29-18.97,24.3-33.12,29.92
				c-0.12,0.05-0.2,0.11-0.28,0.18c-0.09,0-0.18,0.02-0.26,0.06c-11.06,4.92-21.51,9.76-33.71,11.03
				c-5.89,0.61-11.85,0.27-17.62-0.99c-4.76-1.04-8.88-3.18-12.8-5.79c10.94-0.32,21.64,1.82,32.48-1.11
				c8-2.16,15.52-8.38,14.83-17.35c1.06-2.79,1.54-5.69,1.04-8.31c0.01-0.04,0.03-0.07,0.03-0.12c0.03-0.65,0.05-1.3,0.08-1.95
				c0.09,0.01,0.18,0,0.29-0.05c0.72-0.38,1.48-0.68,2.22-1.05c0.24-0.07,0.48-0.14,0.72-0.2c0.37-0.1,0.72-0.21,1.08-0.33
				c0.09-0.02,0.2-0.07,0.31-0.13c0.84,0.15,1.7,0.22,2.56,0.28c2.38,0.99,4.84,1.58,7.29,1.49c0.88-0.03,0.95-1.15,0.2-1.45
				c-7.83-3.11-14.28-6.82-20.15-13.02c-5.24-5.55-9.01-12.31-12.22-19.18c-5.27-11.23-8.52-24.17-15.47-34.62
				c-0.03-0.14-0.09-0.26-0.2-0.38c-0.04-0.04-0.09-0.08-0.13-0.12c-0.6-0.89-1.22-1.76-1.89-2.6c-0.01-0.25-0.12-0.49-0.38-0.65
				c-7.24-4.54-16.02-3.68-24.04-5.56c-5.71-1.34-11.32-3.26-16.76-5.47c-5.9-2.4-12.14-5.34-16.64-9.96
				c-4.25-4.37-2.5-7.94,0.33-11.9c0.01-0.02,0.03-0.04,0.04-0.06c8.51-4.12,18.64-1.7,27.76-1.27c9.29,0.43,18.57,0.81,27.83,1.65
				c19.35,1.75,39.32,6.07,55.15,17.98c0.38,0.29,0.86-0.34,0.51-0.65c-4.96-4.32-10.39-7.68-16.13-10.33
				c0.22-0.21,0.36-0.51,0.34-0.93c-0.04-0.8-0.08-1.6-0.13-2.4c0.44-3.83-0.15-8.07-0.25-11.78c-0.14-5.31-0.25-10.63-0.61-15.93
				c8.48,10.98,16.96,21.75,24.18,33.68c8.37,13.83,15.17,28.55,21,43.61C408.96,380.9,411.94,392.55,410.41,404.04z"/>
			<path style="fill:#340702;" d="M389.092,329.875c-8.347-14.763-18.251-29.853-30.443-41.753
				c-0.045-0.045-0.094-0.082-0.143-0.114c0.028-7.931,0.042-15.861-0.001-23.79c0.115-21.137-0.145-42.292-0.152-63.403
				c-0.007-31.779,0.88-63.742-0.56-95.493c-0.001-0.043-0.018-0.076-0.027-0.113c1.221-6.472-3.438-14.682-8.285-18.664
				c-4.901-4.028-10.463-6.277-16.52-6.007c-18.348-0.947-36.865-0.352-55.23-0.352c-7.198,0-14.403-0.059-21.609-0.09
				c-1.556-0.009-3.11-0.012-4.668-0.014c-0.836-0.002-1.675-0.004-2.512-0.004c-0.836,0-1.675,0.003-2.511,0.004
				c-1.557,0.002-3.112,0.005-4.668,0.014c-7.206,0.032-14.412,0.09-21.61,0.09c-18.364,0-36.882-0.595-55.229,0.352
				c-6.058-0.27-11.62,1.979-16.521,6.007c-4.846,3.982-9.505,12.192-8.285,18.664c-0.01,0.037-0.026,0.07-0.028,0.113
				c-1.439,31.751-0.553,63.714-0.56,95.493c-0.002,6.261-0.027,12.526-0.057,18.793c-3.092-0.943-7-0.406-10.021-0.193
				c-5.046,0.357-10.06,1.3-14.937,2.624c-7.24,1.965-16.153,5.902-19.001,13.396c-3.043,8.009,5.755,12.288,12.023,12.891
				c4.3,0.413,8.667-0.156,12.965-0.338c6.253-0.265,12.722,1.188,18.833,2.361c0.007,0.002,0.013,0.001,0.02,0.003
				c-0.003,3.163,0.007,6.325,0.016,9.488c-9.918,1.462-20.046,5.028-29.132,9.051c-8.503,3.763-19.131,10.197-20.295,20.433
				c-0.505,4.443,0.353,9.395,3.866,12.456c1.781,1.552,4.031,2.273,6.364,2.557c-2.738,8.654,2.151,15.534,10.784,18.189
				c4.729,1.455,9.892,1.621,14.797,1.485c4.352-0.12,9.55-0.333,13.761-1.839c0.004,1.815,0.014,3.634,0.015,5.448v0.012
				c-10.021,1.331-22.488,6.405-23.741,17.534c-1.263,11.217,14.836,16.762,23.574,13.743c-0.156,21.418-0.24,42.859,0.727,64.204
				c0.001,0.043,0.018,0.076,0.028,0.113c-1.221,6.472,3.438,14.682,8.285,18.664c4.901,4.028,10.463,6.277,16.521,6.007
				c18.347,0.947,36.865,0.352,55.229,0.352c7.198,0,14.403,0.059,21.61,0.091c1.555,0.009,3.11,0.013,4.668,0.014
				c0.836,0.002,1.675,0.005,2.511,0.005c0.837,0,1.675-0.003,2.512-0.005c1.558-0.001,3.112-0.005,4.668-0.014
				c7.206-0.032,14.411-0.091,21.609-0.091c8.556,0,17.145,0.125,25.733,0.168c0.053,0.157,0.142,0.307,0.284,0.438
				c9.655,8.813,21.971,11.597,34.767,10.79c12.101-0.765,25.986-4.673,35.479-12.531c0.151,0.06,0.324,0.091,0.535,0.041
				c14.229-3.331,25.58-13.72,32.957-25.982c8.433-14.019,7.158-30.202,2.375-45.193C404.77,360.024,397.32,344.427,389.092,329.875
				z M137.14,320.066c-7.373,1.23-15.063,1.736-22.412,0.428c-3.735-0.664-7.483-1.954-10.205-4.692
				c-2.999-3.019-2.803-7.404-2.193-11.317c1.17,0.025,2.332-0.026,3.439-0.11c5.201-0.397,10.291-1.712,15.283-3.164
				c5.923-1.723,11.991-3.11,18.046-4.301C137.706,304.476,137.744,312.401,137.14,320.066z M139.377,264.228
				c-1.22,10.052-2.563,20.414-2.472,30.547c-8.891,1.176-17.562,5.521-26.368,7.084c-4.365,0.774-9.384,1.013-13.383-1.198
				c-4.341-2.399-5.054-8.012-4.086-12.44c2.094-9.589,13.709-14.88,21.831-18.218c7.938-3.264,16.544-4.801,24.475-7.989
				c0.003,0.734-0.001,1.47,0.003,2.204V264.228z M139.46,222.294c-0.591,8.291-0.382,16.721-1.953,24.908
				c-7.092-1.695-14.471-2.215-21.718-1.763c-6.142,0.383-20.143,0.92-17.478-9.233c1.861-7.091,13.193-10.407,19.265-11.965
				c4.284-1.1,8.699-1.742,13.096-2.153c2.821-0.264,5.96,0.129,8.792-0.311L139.46,222.294z M137.907,356.773
				c-8.41,0.713-21.23-2.487-19.008-13.278c1.921-9.329,13.142-10.101,20.444-13.62c-0.681,8.809-0.914,17.63-1.489,26.446
				C137.843,356.491,137.866,356.639,137.907,356.773z M277.729,446.413c-7.382-0.008-14.773-0.07-22.166-0.102
				c-0.692-0.003-1.386-0.003-2.078-0.006c-1.515-0.004-3.031-0.009-4.545-0.01c-1.514,0.001-3.03,0.006-4.544,0.01
				c-0.692,0.003-1.386,0.003-2.079,0.006c-7.392,0.031-14.784,0.094-22.166,0.102c-18.125,0.02-36.391-0.574-54.502,0.32
				c-6.29-0.507-12.593-2.146-17.15-6.811c-4.621-4.732-6.301-10.41-7.472-16.72c0.006-0.029,0.02-0.056,0.021-0.089
				c1.465-32.307,0.555-64.831,0.561-97.166c0.005-20.556,0.254-41.15,0.148-61.729c0.107-20.58-0.143-41.175-0.148-61.73
				c-0.006-32.335,0.904-64.859-0.561-97.166c-0.001-0.034-0.015-0.059-0.021-0.089c1.171-6.309,2.851-11.987,7.472-16.719
				c4.557-4.666,10.86-6.304,17.15-6.812c18.111,0.894,36.377,0.3,54.502,0.32c7.382,0.008,14.774,0.07,22.166,0.101
				c0.692,0.004,1.386,0.004,2.079,0.006c1.514,0.004,3.03,0.009,4.544,0.01c1.514-0.001,3.03-0.005,4.545-0.01
				c0.692-0.002,1.386-0.002,2.078-0.006c7.393-0.03,14.784-0.093,22.166-0.101c18.125-0.02,36.392,0.574,54.502-0.32
				c6.29,0.507,12.593,2.146,17.15,6.812c4.621,4.732,6.301,10.411,7.472,16.719c-0.006,0.03-0.019,0.055-0.02,0.089
				c-1.466,32.307-0.555,64.831-0.562,97.166c-0.005,20.555-0.254,41.15-0.147,61.73c-0.1,19.231,0.104,38.476,0.137,57.689
				c-1.305-0.518-2.623-1.008-3.954-1.464c0.004-2.046,0.01-4.092,0.012-6.137c0.003-2.997,0.005-5.992,0.006-8.987
				c0.545-14.037,0.082-28.181,0.038-42.215c0.044-14.036,0.507-28.179-0.038-42.215c-0.001-2.996-0.003-5.992-0.006-8.988
				c-0.012-16.577-0.077-33.152-0.11-49.728c-0.029-16.015,0.476-32.142-0.482-48.131c-0.001-0.023-0.012-0.04-0.017-0.061
				c0.799-7.216-5.746-12.792-12.582-13.424c-0.118-0.101-0.266-0.179-0.465-0.201c-7.968-0.866-16.25-0.277-24.261-0.275
				l-24.967,0.005c-8.373,0.002-16.744,0.004-25.115,0.005c-5.084,0.002-10.25-0.203-15.379-0.096
				c-5.128-0.107-10.294,0.097-15.378,0.096c-8.371-0.001-16.743-0.003-25.116-0.005l-24.967-0.005
				c-8.01-0.001-16.293-0.591-24.261,0.275c-0.199,0.022-0.346,0.1-0.464,0.201c-6.836,0.632-13.382,6.208-12.583,13.424
				c-0.005,0.021-0.015,0.037-0.017,0.061c-0.958,15.989-0.453,32.116-0.482,48.131c-0.033,16.576-0.098,33.151-0.11,49.728
				c-0.003,2.996-0.005,5.992-0.006,8.988c-0.545,14.036-0.082,28.179-0.038,42.215c-0.044,14.034-0.507,28.178,0.038,42.215
				c0.001,2.995,0.003,5.99,0.006,8.987c0.012,16.576,0.077,33.152,0.11,49.728c0.03,16.015-0.475,32.143,0.482,48.132
				c0.001,0.023,0.012,0.038,0.017,0.06c-0.799,7.217,5.747,12.792,12.583,13.425c0.118,0.1,0.266,0.179,0.464,0.2
				c7.968,0.867,16.251,0.277,24.261,0.275l24.967-0.005c8.373-0.002,16.745-0.003,25.116-0.005
				c5.084-0.001,10.25,0.203,15.378,0.096c5.129,0.107,10.295-0.097,15.379-0.096c8.371,0.002,16.742,0.003,25.115,0.005
				l24.967,0.005c8.011,0.002,16.293,0.592,24.261-0.275c0.199-0.021,0.347-0.101,0.465-0.2c6.622-0.612,12.951-5.87,12.615-12.758
				c1.468,1.253,3.068,2.336,4.823,3.19c0.08,2.345,0.161,4.689,0.268,7.03c0.001,0.033,0.015,0.06,0.02,0.089
				c-0.95,5.12-2.236,9.825-5.157,13.946c-1.076,1.2-2.14,2.411-3.201,3.623c-4.47,4.018-10.372,5.486-16.264,5.962
				C314.121,445.839,295.854,446.433,277.729,446.413z M350.311,163.833c-0.031,16.575-0.095,33.149-0.106,49.725
				c-0.002,2.438-0.003,4.876-0.005,7.315c-0.538,14.029-0.041,28.166-0.031,42.185v0.094c-0.01,14.018-0.507,28.155,0.031,42.184
				l0.005,7.316c0.002,2.368,0.009,4.737,0.013,7.106c-9.101-2.883-18.719-4.438-28.313-5.447
				c-10.484-1.105-21.035-1.478-31.554-2.128c-8.537-0.527-20.416-3.855-27.35,2.832c-0.143,0.138-0.215,0.291-0.256,0.445
				c-3.055,2.582-4.547,6.744-2.784,10.674c1.297,2.891,3.564,5.217,6.175,7.16c4.332,7.085,13.19,10.137,20.807,12.345
				c11.02,3.195,22.577,4.744,33.85,6.753c0.147,0.026,0.284,0.027,0.417,0.016c0.489,0.328,0.977,0.657,1.472,0.978
				c2.882,6.4,5.774,12.765,8.327,19.326c2.716,6.98,5.434,13.957,8.835,20.64c0.03,0.06,0.063,0.117,0.094,0.178
				c-0.018,0.058-0.022,0.122,0.003,0.194c2.299,6.456,5.689,13.451,10.85,18.312c0.001,0.003,0.001,0.008,0.001,0.011
				c-0.903,3.841-2.052,7.011-5.446,9.456c-2.824,2.035-5.991,2.039-9.167,2.621c-6.653-0.474-13.479-0.061-20.12-0.06
				c-8.317,0.002-16.637,0.004-24.954,0.006l-25.109,0.005c-5.63,0.001-11.368-0.244-17.055-0.109
				c-5.686-0.135-11.424,0.11-17.054,0.109l-25.109-0.005c-8.317-0.002-16.636-0.004-24.954-0.006
				c-6.641-0.001-13.467-0.414-20.121,0.06c-3.176-0.582-6.342-0.586-9.167-2.621c-3.394-2.445-4.542-5.615-5.446-9.456
				c0.981-16.5,0.448-33.145,0.48-49.669c0.031-16.575,0.095-33.15,0.107-49.725l0.005-7.316
				c0.538-14.028,0.041-28.166,0.031-42.184v-0.094c0.01-14.018,0.507-28.156-0.031-42.185c-0.002-2.439-0.003-4.877-0.005-7.315
				c-0.012-16.575-0.076-33.15-0.107-49.725c-0.033-16.525,0.501-33.17-0.48-49.669c0.904-3.842,2.052-7.012,5.446-9.457
				c2.825-2.034,5.991-2.039,9.167-2.621c6.654,0.474,13.48,0.061,20.121,0.059c8.317-0.002,16.636-0.003,24.954-0.005l25.109-0.005
				c5.63-0.001,11.369,0.244,17.054,0.108c5.687,0.135,11.425-0.109,17.055-0.108l25.109,0.005
				c8.317,0.001,16.637,0.003,24.954,0.005c6.641,0.002,13.467,0.415,20.12-0.059c3.176,0.582,6.343,0.587,9.167,2.621
				c3.395,2.444,4.543,5.614,5.446,9.457C349.811,130.663,350.345,147.308,350.311,163.833z M407.204,415.594
				c-6.238,14.282-18.97,24.296-33.128,29.919c-0.112,0.044-0.199,0.105-0.278,0.174c-0.087,0.002-0.175,0.021-0.26,0.059
				c-11.058,4.927-21.504,9.765-33.713,11.034c-5.883,0.612-11.848,0.275-17.62-0.99c-4.751-1.043-8.873-3.175-12.794-5.788
				c10.939-0.323,21.637,1.815,32.482-1.11c7.992-2.156,15.512-8.383,14.83-17.348c1.055-2.794,1.534-5.696,1.041-8.316
				c0.01-0.037,0.026-0.07,0.027-0.113c0.03-0.652,0.049-1.305,0.075-1.958c0.089,0.014,0.186,0.009,0.288-0.044
				c0.727-0.378,1.486-0.682,2.22-1.049c0.242-0.069,0.483-0.142,0.727-0.207c0.363-0.097,0.722-0.208,1.079-0.321
				c0.084-0.026,0.193-0.077,0.307-0.131c0.842,0.151,1.706,0.218,2.564,0.279c2.374,0.987,4.834,1.576,7.289,1.491
				c0.877-0.03,0.95-1.151,0.196-1.45c-7.829-3.111-14.282-6.826-20.145-13.026c-5.241-5.543-9.009-12.311-12.225-19.173
				c-5.268-11.239-8.515-24.178-15.469-34.627c-0.034-0.133-0.091-0.262-0.202-0.379c-0.04-0.043-0.087-0.079-0.129-0.12
				c-0.602-0.884-1.223-1.755-1.885-2.599c-0.019-0.248-0.129-0.491-0.389-0.653c-7.235-4.533-16.021-3.676-24.031-5.559
				c-5.718-1.343-11.325-3.26-16.763-5.468c-5.902-2.396-12.137-5.341-16.637-9.963c-4.273-4.39-2.483-7.974,0.367-11.961
				c8.511-4.114,18.641-1.699,27.759-1.27c9.286,0.438,18.569,0.813,27.83,1.651c19.353,1.753,39.323,6.069,55.15,17.986
				c0.38,0.287,0.861-0.347,0.506-0.656c-4.953-4.318-10.385-7.675-16.132-10.323c0.226-0.21,0.366-0.519,0.345-0.93
				c-0.044-0.8-0.085-1.602-0.127-2.402c0.439-3.836-0.151-8.076-0.249-11.781c-0.14-5.308-0.25-10.628-0.619-15.927
				c8.488,10.975,16.961,21.743,24.185,33.678c8.368,13.83,15.172,28.553,21.003,43.613
				C410.41,384.632,413.804,400.483,407.204,415.594z"/>
			<path style="fill:#340702;" d="M276.219,431.31c-0.037-0.097-0.104-0.165-0.185-0.211c-0.428-0.898-1.23-1.643-2.364-1.956
				c-1.143-0.316-2.346-0.405-3.564-0.388c-5.823-0.351-11.985-0.425-17.899-0.109c-3.901-0.06-8.209-0.464-12.244-0.186
				c-4.097-0.052-8.221,0.057-12.188,0.295c-1.217-0.018-2.419,0.072-3.563,0.388c-1.134,0.313-1.937,1.058-2.365,1.956
				c-0.08,0.046-0.147,0.114-0.185,0.211c-0.36,0.921-0.363,1.909-0.341,2.888c-0.02,0.592-0.004,1.188,0.008,1.779
				c-0.012,0.591-0.028,1.186-0.008,1.778c-0.022,0.978-0.019,1.967,0.341,2.888c0.038,0.097,0.105,0.166,0.185,0.212
				c0.428,0.898,1.23,1.643,2.365,1.955c1.144,0.315,2.346,0.405,3.563,0.388c3.967,0.238,8.091,0.347,12.188,0.294
				c4.035,0.279,8.343-0.124,12.244-0.185c5.914,0.315,12.076,0.241,17.899-0.109c1.218,0.018,2.42-0.072,3.564-0.388
				c1.134-0.313,1.936-1.057,2.364-1.955c0.08-0.046,0.147-0.115,0.185-0.212c0.36-0.921,0.363-1.909,0.342-2.888
				c0.02-0.593,0.004-1.188-0.009-1.778c0.013-0.591,0.028-1.188,0.009-1.779C276.582,433.219,276.579,432.23,276.219,431.31z
				 M275.029,435.501c0.002,0.158,0.004,0.317,0.005,0.476c-0.001,0.157-0.003,0.316-0.005,0.475
				c-0.019,0.958-0.093,1.963,0.025,2.927c-0.146,0.587-0.34,1.153-0.825,1.632c-0.682,0.672-1.949,0.722-2.885,0.756
				c-0.41,0.016-0.814,0.027-1.219,0.04c-1.557-0.094-3.142-0.163-4.735-0.216c-4.816-0.253-9.776,0.04-14.56-0.038
				c-3.794-0.063-8.011-0.434-11.909-0.056c-3.76-0.021-7.53,0.09-11.166,0.31c-0.404-0.013-0.809-0.024-1.219-0.04
				c-0.935-0.034-2.203-0.084-2.884-0.756c-0.485-0.478-0.679-1.045-0.826-1.632c0.119-0.964,0.044-1.969,0.026-2.927
				c-0.002-0.158-0.004-0.317-0.005-0.475c0.001-0.158,0.002-0.317,0.005-0.476c0.018-0.958,0.093-1.963-0.026-2.927
				c0.146-0.587,0.34-1.152,0.826-1.632c0.681-0.673,1.949-0.722,2.884-0.756c0.41-0.015,0.814-0.027,1.219-0.04
				c3.637,0.22,7.407,0.331,11.166,0.309c3.897,0.378,8.115,0.009,11.909-0.054c4.784-0.079,9.744,0.214,14.56-0.039
				c1.594-0.053,3.179-0.123,4.735-0.216c0.404,0.013,0.809,0.025,1.219,0.04c0.936,0.034,2.203,0.083,2.885,0.756
				c0.485,0.479,0.679,1.045,0.825,1.632C274.936,433.538,275.011,434.543,275.029,435.501z"/>
			<path style="fill:#340702;" d="M223.497,94.489c1.731,0.476,3.808-0.49,4.396-2.233c0.708-1.633-0.013-3.674-1.542-4.57
				c-0.849-0.497-1.883-0.631-2.832-0.37c-0.622,0.174-1.163,0.489-1.622,0.945c-0.455,0.459-0.77,0.999-0.945,1.622
				c-0.134,0.336-0.14,0.712-0.147,1.072C220.776,92.58,221.946,94.062,223.497,94.489z"/>
			<path style="fill:#340702;" d="M233.374,94.215c4.894,0.155,10.451,0.701,15.566,0.257c5.116,0.444,10.674-0.103,15.567-0.257
				c4.09-0.129,4.09-6.215,0-6.344c-4.893-0.155-10.451-0.701-15.567-0.258c-5.116-0.443-10.673,0.103-15.566,0.258
				C229.284,88,229.284,94.086,233.374,94.215z"/>
			<path style="fill:#340702;" d="M274.385,94.489c1.551-0.427,2.721-1.909,2.69-3.535c-0.007-0.36-0.013-0.736-0.147-1.072
				c-0.175-0.622-0.49-1.163-0.945-1.622c-0.458-0.455-0.999-0.771-1.621-0.945c-0.948-0.261-1.982-0.127-2.832,0.37
				c-1.528,0.896-2.251,2.937-1.542,4.57C270.577,93.998,272.654,94.964,274.385,94.489z"/>
			<path style="fill:#EF7465;" d="M410.41,404.04c-0.52,3.88-1.55,7.74-3.21,11.55c-6.23,14.29-18.97,24.3-33.12,29.92
				c-0.12,0.05-0.2,0.11-0.28,0.18c-0.09,0-0.18,0.02-0.26,0.06c-11.06,4.92-21.51,9.76-33.71,11.03
				c-5.89,0.61-11.85,0.27-17.62-0.99c-4.76-1.04-8.88-3.18-12.8-5.79c10.94-0.32,21.64,1.82,32.48-1.11
				c8-2.16,15.52-8.38,14.83-17.35c1.06-2.79,1.54-5.69,1.04-8.31c0.01-0.04,0.03-0.07,0.03-0.12c0.03-0.65,0.05-1.3,0.08-1.95
				c0.09,0.01,0.18,0,0.29-0.05c0.72-0.38,1.48-0.68,2.22-1.05c0.24-0.07,0.48-0.14,0.72-0.2c0.37-0.1,0.72-0.21,1.08-0.33
				c0.09-0.02,0.2-0.07,0.31-0.13c0.84,0.15,1.7,0.22,2.56,0.28c2.38,0.99,4.84,1.58,7.29,1.49c0.88-0.03,0.95-1.15,0.2-1.45
				c-7.83-3.11-14.28-6.82-20.15-13.02c-5.24-5.55-9.01-12.31-12.22-19.18c-5.27-11.23-8.52-24.17-15.47-34.62
				c-0.03-0.14-0.09-0.26-0.2-0.38c-0.04-0.04-0.09-0.08-0.13-0.12c-0.6-0.89-1.22-1.76-1.89-2.6c-0.01-0.25-0.12-0.49-0.38-0.65
				c-7.24-4.54-16.02-3.68-24.04-5.56c-5.71-1.34-11.32-3.26-16.76-5.47c-5.9-2.4-12.14-5.34-16.64-9.96
				c-4.25-4.37-2.5-7.94,0.33-11.9c0.85,6.18,5.79,11.7,11.59,14.46c6.94,3.31,14.89,3.58,22.58,3.88
				c7.69,0.3,15.66,0.77,22.45,4.39c12.49,6.67,17.35,21.68,25.05,33.56c10.45,16.12,27.85,27.56,46.79,30.77
				C399.05,404.27,404.75,404.49,410.41,404.04z"/>
			<path style="fill:#EF7465;" d="M114.73,320.49c-3.74-0.66-7.49-1.95-10.21-4.69c-3-3.02-2.8-7.4-2.19-11.32
				c0.96,0.02,1.91,0,2.83-0.07c0.19,1.03,1.04,2.08,1.91,2.79c5.44,4.42,12.68,6.13,19.69,6.1c3.65-0.02,7.26-0.47,10.85-1.13
				c-0.14,2.65-0.27,5.29-0.47,7.9C129.77,321.3,122.08,321.8,114.73,320.49z"/>
			<path style="fill:#EF7465;" d="M98.31,236.21c0.42-1.62,1.34-3.04,2.57-4.28c1.14,1.94,3.19,3.61,5.31,4.47
				c7.13,2.9,15.17,1.36,22.87,1.33c3.2-0.01,6.4,0.26,9.55,0.79c-0.21,2.92-0.55,5.81-1.1,8.68c-7.1-1.69-14.47-2.21-21.72-1.76
				C109.65,245.82,95.65,246.36,98.31,236.21z"/>
			<path style="fill:#EF7465;" d="M138.08,352.5c-0.07,1.27-0.15,2.55-0.23,3.82c-0.01,0.17,0.02,0.32,0.06,0.45
				c-7.11,0.61-17.36-1.58-19.02-8.78c0.37,0.31,0.75,0.6,1.15,0.86c3.98,2.65,8.94,3.3,13.72,3.54
				C135.19,352.46,136.64,352.5,138.08,352.5z"/>
			<path style="fill:#EF7465;" d="M137.14,286.08c-0.17,2.91-0.26,5.82-0.23,8.7c-8.9,1.17-17.57,5.52-26.37,7.08
				c-0.22,0.04-0.43,0.08-0.65,0.11c-0.01,0.01-0.02,0.01-0.03,0.01c-0.23,0-0.46,0-0.69-0.01c-1.03-0.02-2.22-0.08-3.06,0.41
				c-3.11,0.15-6.27-0.23-8.96-1.72c-3-1.66-4.26-4.85-4.44-8.12c5.69,2.08,12.1,2.07,18.12,0.99c7.23-1.31,14.11-4.04,21.14-6.18
				C133.65,286.84,135.39,286.36,137.14,286.08z"/>
		</g>
		<g>
			<path style="fill:#E25A72;" d="M242.619,154.165c1.394,2.408,3.049,3.774,4.596,1.039c0.911-1.613,1.477-3.409,1.859-5.22
				c-1.239,0.234-2.412,0.366-3.547,1.123C244.287,151.934,243.386,152.94,242.619,154.165z"/>
			<path style="fill:#FECE8B;" d="M255.57,180.08l-0.18,0.96c-0.04,0.02-0.08,0.02-0.12,0.05c-3.59,2.38-6.03,4.5-10.58,4.77
				c-3.95,0.24-7.51-1.38-10.98-3.03c-0.09-0.34-0.19-0.67-0.27-1.01c0.75-0.81,1.55-1.58,2.34-2.35c0.08-0.08,0.18-0.16,0.27-0.24
				c0.03,0.08,0.05,0.16,0.07,0.24c0.24,0.63,1.27,0.97,1.61,0.21c0.36-0.79,0.51-1.65,0.55-2.53c0.04-0.07,0.08-0.14,0.11-0.22
				c0.07-0.24,0.02-0.46-0.1-0.64c-0.04-1.04-0.22-2.1-0.45-3.1c-0.1-0.45-0.21-0.9-0.32-1.32c-0.2-0.77-0.5-1.48-0.86-2.15
				c4.71,2.99,10.22,1.21,14.96-2.07c-0.72,1.56-1.12,3.26-1.29,5c-0.19,1.78-0.13,3.59,0.09,5.33c0.12,1.04,1.59,1.39,1.91,0.25
				c0.02-0.05,0.02-0.1,0.04-0.15c0.3,0.14,0.6,0.28,0.89,0.44c0.8,0.44,1.53,0.99,2.26,1.53
				C255.54,180.07,255.55,180.07,255.57,180.08z"/>
			<path style="fill:#C2395D;" d="M239.433,146.453c0.355,0.93,1.4,4.287,2.751,6.912c1.425-2.331,4.374-4.529,7.073-4.413
				c0.169-1.239,0.204-2.595,0.527-3.801C246.556,146.167,242.833,146.547,239.433,146.453z"/>
			<path style="fill:#FECE8B;" d="M282.2,103.43c-1.33-1.47-1.97-4.14-1.87-6.39c-4.34,2.35-10.57,2.63-16.28,1.61v0.01
				c-0.99,0.83-2.11,1.51-3.33,2.07c-7.27,3.34-17.96,2.21-24.68-0.36c-7.1-2.71-13.52-7.08-17.09-13.58
				c-0.35,3.24-2.39,6.82-4.14,9.12c-2.17,2.89-4.65,5.35-7.66,7.23c0.9,2.27,0.65,5.14,0.93,7.55c0.34,2.96,1.18,6.31,0.35,9.23
				c0.93,11.06-0.29,23,7.41,32.11c3.69,4.36,8.19,8.18,13.39,10.62c5.04,2.35,9.74,2.84,14.94,3.12c0.64,0.04,1.28,0.07,1.93,0.1
				c9.94-1.45,20.5-5.87,26.92-13.77c7.49-9.21,6.72-20.26,7.48-31.34c-0.42-2.9,0.02-5.93,0.4-8.82
				C281.26,109.1,281.5,106.21,282.2,103.43z M220.77,105.85c1.3-1.89,2.9-3.39,5.08-4.23c1.42-0.55,2.07,1.78,0.63,2.3
				c-1.75,0.63-3.39,1.38-4.75,2.67C221.24,107.05,220.36,106.44,220.77,105.85z M229.25,123.42c-0.38,1.31-2.29,2.04-3.26,0.87
				c-1.1-1.33-1.28-3.67-0.66-5.5c-0.59-0.15-1.15-0.43-1.58-0.87c-0.23-0.25-0.46-0.52-0.62-0.83c-0.15-0.28-0.15-0.53-0.19-0.85
				c-0.03-0.34,0.42-0.37,0.58-0.16c0.62,0.82,1.17,1.56,2.24,1.73c0.15-0.25,0.3-0.48,0.48-0.68c0.61-0.67,1.99-0.56,2.38,0.31
				c0.42,0.94,0.51,1.94,0.56,2.96C229.22,121.42,229.54,122.43,229.25,123.42z M259.19,103.1c0.16-0.36,0.63-0.58,1.01-0.58
				c1.94,0.03,3.68,1.61,4.77,3.09c0.58,0.79-0.62,1.55-1.27,0.99c-0.6-0.52-1.29-0.97-2.04-1.22c-0.69-0.23-1.39-0.38-2.05-0.68
				c-0.38-0.17-0.57-0.63-0.58-1.01C259.02,103.47,259.1,103.3,259.19,103.1z M258.28,120.4c0.04-1.02,0.13-2.02,0.55-2.96
				c0.39-0.87,1.77-0.98,2.38-0.31c0.18,0.2,0.33,0.43,0.48,0.68c1.07-0.17,1.62-0.91,2.24-1.73c0.16-0.21,0.61-0.18,0.58,0.16
				c-0.03,0.32-0.04,0.57-0.19,0.85c-0.16,0.31-0.38,0.58-0.62,0.83c-0.43,0.44-0.99,0.72-1.57,0.87c0.61,1.83,0.43,4.17-0.67,5.5
				c-0.97,1.17-2.88,0.44-3.26-0.87C257.91,122.43,258.23,121.42,258.28,120.4z M243,129.02c0.22-0.49,1.06-0.13,0.87,0.37
				c-0.78,2-1.26,4.14-0.82,6.26c0.63-0.26,0.96-0.86,1.52-1.31c0.47-0.38,1.15,0.08,0.85,0.65c-0.63,1.2-1.47,1.97-2.85,2.04
				c-0.27,0.01-0.54-0.2-0.61-0.46C241.3,133.96,241.92,131.42,243,129.02z M238.16,146.79c-0.07-0.17-0.06-0.33,0.01-0.45
				c-0.24-0.18-0.17-0.61,0.2-0.64c4.01-0.33,7.8-1.26,11.74-1.89c0.54-0.09,0.84,0.4,0.7,0.78c0.64,2.21-0.27,5.51-0.86,7.55
				c-0.53,1.86-1.24,4.28-2.94,5.45C242.03,161.04,239.16,149.35,238.16,146.79z"/>
			<path style="fill:#E696D3;" d="M221.425,185.846c0.175-0.638,0.361-1.272,0.572-1.899c1.883-5.588,5.964-12.897,12.669-12.812
				c-0.005-0.014-0.009-0.028-0.014-0.042c-0.064,0.014-0.129,0.026-0.199,0.03c-9.827,0.535-22.021,1.029-28.413-7.355
				c-0.086,1.726-0.207,3.44-0.082,5.179c0.046,0.647-0.817,1.175-1.359,0.78c-7.317-5.334-8.643-12.623-6.674-21.087
				c1.192-5.124,1.96-10.11-0.678-14.987c-2.212-4.088-4.825-7.872-6.602-12.198c-0.423-1.03-0.816-2.084-1.178-3.153
				c-6.442,6.155-11.615,13.482-15.394,21.54c-4.494,9.583-5.796,19.843-7.073,30.22c0.113,1.401,0.212,2.814,0.16,4.208
				c1.231,9.935,2.606,19.742,6.913,28.927c3.823,8.151,9.068,15.563,15.617,21.761c1.581,1.497,3.223,2.958,4.914,4.375
				c1.211-8.391,5.547-17.568,9.683-24.66C208.399,197.621,213.88,189.588,221.425,185.846z"/>
			<path style="fill:#9D4A23;" d="M292.06,149.39c0.87,7.28,0.5,13.74-5.1,18.59c-0.07-1.57-0.16-3.13,0.05-4.72
				c0.07-0.55-0.47-1.22-1.05-0.81c-9.3,6.41-21.55,7.28-32.41,5.55c0.06-0.22,0.13-0.44,0.21-0.66c0.08-0.26,0.19-0.52,0.3-0.77
				c7.94-2.12,15.53-6.91,20.7-12.74c7.21-8.14,8.95-20.98,7.44-31.61c0.6-2.88,0.6-5.89,0.89-8.82c0.32-3.22,0.82-6.46,0.48-9.68
				c0.15-0.17,0.23-0.42,0.18-0.7c-0.23-1.34-0.94-2.62-1.29-3.95c-0.27-1.01-0.34-2.05-0.51-3.07c0.57-0.52,0.24-1.44-0.55-1.38
				c-0.17-0.06-0.36-0.02-0.51,0.09c-4.31,0.94-8.11,2.12-12.65,2.1c-4.97-0.03-9.49-1.36-14.22-2.68
				c-0.47-0.13-0.72,0.52-0.32,0.78c0.08,0.05,0.19,0.1,0.27,0.16c0.03,0.09,0.08,0.18,0.16,0.24c2.05,1.57,4.92,2.5,7.59,2.97
				c-15.72,6.49-36.59-2.08-44.11-17.12c-0.22-0.45-0.92-0.13-0.79,0.34c0.22,0.85,0.5,1.66,0.81,2.45
				c-0.09,0.07-0.18,0.14-0.24,0.25c-1.63,3-2.02,6.57-3.69,9.67c-2.17,4.04-5.39,7.42-9.27,9.83c-0.47,0.29-0.06,0.95,0.42,0.72
				c0.39-0.18,0.76-0.39,1.14-0.59c-0.72,2.09-0.23,4.76-0.05,6.86c0.25,3.03,0.12,6.49,1.1,9.38c0.03,0.1,0.09,0.18,0.15,0.26
				c-2,11.31-0.19,24.23,6.98,33.37c4.04,5.14,10.82,10.42,18.06,12.97c0.55,0.7,1.03,1.43,1.44,2.2
				c-5.62,0.06-13.53,0.71-19.71-1.26c-3.38-1.08-6.24-2.95-7.94-6.12c-0.31-0.6-1.13-0.27-1.18,0.32c-0.13,1.74-0.4,3.45-0.57,5.18
				c-3.09-3.12-4.79-6.67-4.9-11.34c-0.09-3.69,1.25-7.31,1.89-10.91c1.4-7.92-2.82-13.42-6.36-20.05
				c-3.89-7.27-6.14-15.65-4.72-23.88c1.6-9.25,8.38-15.62,15.48-21.05c0.06-0.04,0.08-0.09,0.12-0.14c0.23,0.15,0.53,0.17,0.8-0.08
				c5.34-4.93,10.37-10.32,16.36-14.49c6.65-4.63,14.11-5.98,22.06-5.05c7.8,0.91,15.59,1.88,23.05,4.44
				c8.41,2.9,15.07,8.93,20.61,15.7c5.66,6.91,9.34,15.21,9.18,24.2c-0.14,8.59-3.73,16.86-5.6,25.14
				C290.71,136.23,291.24,142.61,292.06,149.39z"/>
			<path style="fill:#FF8C94;" d="M240.808,205.335c1.987,5.266,4.538,10.682,6.468,16.182c0.543-6.731,2.67-13.534,4.167-20.003
				c1.302-5.629,2.244-11.303,3.281-16.964c-4.886,5.447-14.525,3.651-20.529,0.089C236.074,191.638,238.236,198.52,240.808,205.335
				z"/>
			<path style="fill:#B2BBD3;" d="M224.387,212.684c-0.002,0.032-0.006,0.064-0.007,0.095c-0.017,0.372-0.017,0.776-0.224,1.094
				c-0.039,0.059-0.088,0.102-0.144,0.133c6.158,5.341-3.028,18.448-8.866,21.442c-0.01,0.005-0.02,0.004-0.031,0.008
				c-0.001,0.013-0.002,0.026-0.002,0.038c-0.059,0.645-0.174,1.253-0.413,1.85c0.36-0.29,0.72-0.59,1.081-0.888
				c0.028-0.172,0.076-0.341,0.17-0.504c0.142-0.245,0.422-0.295,0.667-0.196c3.653-3.091,7.193-6.6,9.402-10.79
				C228.758,219.775,228.021,215.829,224.387,212.684z"/>
			<path style="fill:#FECE8B;" d="M321.07,148.28c-0.1,0.54-0.22,1.1-0.39,1.66c-0.32,1.16-0.82,2.31-1.59,3.18
				c-1.1,1.24-1.81-0.29-2.69-1.03c0.89-0.71,1.4-1.73,1.08-3.07c-0.04-0.21-0.1-0.42-0.19-0.64c-0.26-0.7-0.71-1.18-1.26-1.52
				c0.25-1.17,0.66-3.26,1.01-5.68c1.55-0.29,3.11-0.16,3.79,1.54c0.01,0.03,0.02,0.07,0.04,0.11c-0.16,0.29-0.04,0.68,0.24,0.83
				C321.46,145.16,321.33,146.81,321.07,148.28z"/>
			<path style="fill:#FECE8B;" d="M326.2,149.01c-0.04,0.6-0.16,1.21-0.37,1.78c-0.26,0.75-0.66,1.44-1.2,2.02
				c-0.93,0.97-2.05,0.85-3.18,1.06c0.66-1,1.11-2.23,1.41-3.37c0.13-0.46,0.23-0.9,0.31-1.31c0.36-1.76,0.5-3.75,0.09-5.57
				C325.51,144,326.37,146.54,326.2,149.01z"/>
			<path style="fill:#FECE8B;" d="M314.324,146.289c0.267-3.662,1.133-7.27,1.339-10.944c0.096-1.727,0.262-3.627-0.162-5.326
				c-0.655-2.627-2.398-1.77-3.041,0.324c-1.646,5.35-1.187,10.954-2.196,16.36C311.502,146.358,313.001,146.115,314.324,146.289z"
				/>
			<path style="fill:#E696D3;" d="M297.8,118.38c-1.065,3.903-2.232,7.793-3.054,11.792c-1.033,5.02-1.255,9.824-0.635,14.898
				c0.431,3.53,1.054,7.125,0.955,10.693c-0.178,6.435-2.651,11.733-8.505,14.796c-0.713,0.372-1.483-0.232-1.314-1.011
				c0.368-1.688,0.268-3.356,0.293-5.041c-9.284,6.543-21.445,7.518-32.384,5.594c-0.028,0.253-0.045,0.509-0.064,0.764
				c4.557,0.617,8.031,3.607,10.451,7.371c0.065,0.008,0.131,0.022,0.196,0.054c6.142,3.006,12.018,6.319,18.397,8.86
				c5.323,2.12,10.721,4.032,16.114,5.962c0.73-4.325,2.318-8.605,3.423-12.826c1.083-4.142,1.599-8.762,3.332-12.671
				c0.137-0.308,0.385-0.445,0.652-0.473c0.133-0.208,0.352-0.371,0.609-0.397c0.801-0.083,1.62-0.1,2.448-0.082
				c0.023-0.141,0.046-0.284,0.061-0.43c0.014-0.141,0.034-0.281,0.052-0.422c-3.94-1.257-6.795-5.776-6.654-9.883
				c0.138-4.06,2.919-7.204,6.579-8.705c-0.384-4.195-0.066-8.661,0.557-12.794c0.06-0.394,0.123-0.841,0.196-1.313
				C306.269,127.721,302.36,122.752,297.8,118.38z"/>
			<path style="fill:#817FB1;" d="M267.116,213.808c-0.065,0.039-0.128,0.057-0.191,0.072c-1.414,1.449-2.114,3.459-1.609,5.758
				c0.665,3.022,2.949,5.921,6.372,5.523c3.853-0.448,6.487-4.194,5.552-8.006c-0.568-2.316-1.916-3.728-3.602-4.338
				c-0.206,0.072-0.44,0.015-0.538-0.168C271.267,212.189,269.108,212.601,267.116,213.808z M274.004,216.6
				c0.952,1.381-0.116,3.693-1.554,4.325c-1.412,0.621-2.925-0.099-3.438-1.55c-0.604-1.708,0.396-3.313,1.98-3.964
				c0.24-0.099,0.449,0.025,0.561,0.217c0.189-0.012,0.375-0.014,0.539,0.004C272.831,215.708,273.564,215.963,274.004,216.6z"/>
			<path style="fill:#B2BBD3;" d="M266.78,196.669c0.456,0.284,0.672,1.016,0.227,1.483c0.669,4.589,1.048,9.08,1.526,12.828
				c0.193-0.05,0.393-0.091,0.598-0.127c-2.163-13.357-0.527-32.157-14.63-38.462c0.051,0.209,0.001,0.442-0.206,0.648
				c-0.056,0.055-0.12,0.122-0.188,0.189C262.222,177.189,265.235,186.994,266.78,196.669z"/>
			<path style="fill:#FFFFFF;" d="M274.93,187.21c0.33,6.2-0.36,12.32-1.1,18.45c-0.2,1.64-0.4,3.29-0.58,4.93
				c-0.9-0.18-1.84-0.2-2.76-0.03c-0.14-2.13-0.29-4.3-0.49-6.48c-0.6-6.51-1.57-13.14-3.42-19.21c-0.4-1.32-0.92-2.65-1.54-3.94
				c3.02,2.33,6.41,4.28,9.98,5.98C274.96,186.98,274.92,187.08,274.93,187.21z"/>
			<path style="fill:#B2BBD3;" d="M270.798,217.037c-0.412,0.537-0.687,1.162-0.438,1.841c0.213,0.587,0.794,1.087,1.436,0.817
				c0.693-0.29,1.85-1.874,1.102-2.554C272.227,216.534,271.515,216.824,270.798,217.037z"/>
			<path style="fill:#817FB1;" d="M221.956,210.935c-0.035,0.063-0.084,0.122-0.164,0.168c-0.651,0.373-1.448,0.436-2.162,0.652
				c-0.617,0.186-1.224,0.434-1.849,0.588c-0.229,0.186-0.426,0.383-0.632,0.577c0.097,0.189,0.191,0.378,0.29,0.564
				c0.142,0.267,0.299,0.509,0.366,0.793c0.547-0.602,1.224-1.122,2.059-1.53c-0.004-0.272,0.252-0.574,0.572-0.492
				c1.163,0.299,2.121,0.716,2.895,1.229c-0.101-0.464,0.001-1.026,0.131-1.54C222.992,211.6,222.498,211.261,221.956,210.935z"/>
			<path style="fill:#FFFFFF;" d="M217.025,239.251c-0.218-0.265-0.471-0.59-0.695-0.942c-0.402,0.318-0.795,0.619-1.174,0.896
				c-0.507,0.37-1.104-0.033-1.279-0.534c-0.307,0.318-0.678,0.562-1.113,0.628c-0.973,0.149-1.744-0.509-1.921-1.456
				c-0.246-1.316,0.041-2.801,0.725-3.934c0.017-0.027,0.039-0.046,0.059-0.067c0.285-0.688,0.741-1.328,1.427-1.484
				c0.042-0.009,0.077-0.014,0.117-0.022c0.059-0.394,0.147-0.778,0.223-1.116c0.215-0.958,0.535-1.869,0.908-2.77
				c-1.622-3.105-2.415-6.492-2.093-10.227c0.248-2.879,1.683-5.631,4.078-7.011c-1.356-4.739-2.294-9.804-2.723-14.708
				c-2.801,3.264-5.381,6.712-7.535,10.7c-2.191,4.058-4.131,8.252-5.655,12.61c-1.292,3.697-2.169,7.59-3.728,11.185
				c5.453,4.322,11.415,8.095,17.746,10.78c1.016,0.431,2.043,0.837,3.076,1.229c0.052-0.459,0.121-0.912,0.113-1.298
				c-0.012-0.498-0.097-1.234,0.107-1.772C217.444,239.718,217.218,239.486,217.025,239.251z"/>
			<path style="fill:#E696D3;" d="M279.091,220.683c2.296,2.784,3.148,6.761,1.858,10.213c-0.621,1.665-1.638,3.526-3.014,4.904
				c0.358,1.027,0.558,2.085,0.652,3.166c6.9-3.75,13.272-8.676,18.906-14.01c0.765-0.724,1.499-1.475,2.224-2.234
				c-6.942-0.881-13.832-2.758-20.42-5.061C279.39,218.697,279.313,219.716,279.091,220.683z"/>
			<path style="fill:#817FB1;" d="M226.181,235.605c0.419-0.472,0.661-1.12,0.627-1.755c-0.039-0.709-0.33-1.386-0.902-1.832
				c-0.07-0.054-0.16-0.081-0.214-0.102c-0.027,0.059-0.068,0.128-0.046,0.077c-0.471,1.06-0.502,2.738-0.273,4.064
				C225.668,235.975,225.951,235.866,226.181,235.605z"/>
			<path style="fill:#817FB1;" d="M213.141,233.614c-0.382,0.268-0.663,0.711-0.91,1.144c-0.135,0.852-0.327,1.756-0.076,2.564
				c0.066,0.212,0.037,0.168,0.151,0.341c0.018,0.027,0.021,0.036,0.019,0.038c0.01,0.008,0.017,0.015,0.042,0.039
				c0.021,0.02,0.043,0.042,0.065,0.063c0.013,0.009,0.03,0.02,0.047,0.032c0.001,0.001,0.001,0.001,0.002,0.001
				c0.011,0.001,0.021,0.002,0.03,0.002c0.001-0.001,0.001-0.001,0.003-0.001c0.041-0.011,0.055-0.014,0.065-0.014
				c0.005-0.003,0.001-0.002,0.01-0.007c0.053-0.027,0.105-0.056,0.153-0.089c0.014-0.01,0.013-0.009,0.021-0.014
				c0.028-0.024,0.057-0.049,0.084-0.075c0.052-0.05,0.103-0.1,0.149-0.154c0.14-0.163,0.372-0.534,0.482-0.822
				c0.199-0.517,0.374-1.04,0.473-1.586c0.024-0.13,0.033-0.264,0.047-0.396c-0.185,0.059-0.386,0.007-0.53-0.189
				C213.285,234.233,213.188,233.933,213.141,233.614z"/>
			<path style="fill:#FFFFFF;" d="M278.39,230.19c-0.93,2.97-3.46,4.15-5.49,6.19c-0.52,0.53-0.14,1.45,0.61,1.46
				c0.9,0,1.74-0.23,2.5-0.61c0.05,0.99,0.16,1.98,0.18,2.99c-1.12,0.55-2.25,1.07-3.4,1.56c-2.43,1.03-4.92,1.96-7.44,2.75
				c-2.85,0.9-5.76,1.63-8.7,2.14c-2.71,0.47-5.4,0.7-8.1,0.88c-0.01-1.75,0.02-3.5,0.09-5.25c0.02-0.72,0.05-1.45,0.09-2.18
				c2.84-0.55,5.65-1.21,8.4-2.01c0.64-0.19,0.37-1.11-0.28-0.99c-2.69,0.49-5.37,1.04-8.05,1.59c0.05-0.79,0.11-1.58,0.19-2.37
				c0.01-0.23,0.03-0.46,0.05-0.69c0.05-0.5-0.8-0.62-0.88-0.12c-0.07,0.41-0.13,0.82-0.19,1.23c-0.11,0.72-0.21,1.45-0.31,2.18
				c-3.91,0.8-7.81,1.6-11.76,2.26c-0.37,0.07-0.29,0.7,0.09,0.67c3.83-0.33,7.69-0.82,11.51-1.52c-0.08,0.69-0.15,1.37-0.21,2.06
				c-0.16,1.75-0.27,3.49-0.32,5.25c-1.12,0.07-2.25,0.14-3.38,0.22c-4.37-0.31-8.68-0.45-13.05-1.21
				c-3.75-0.66-7.42-1.66-11.01-2.91c0.12-0.81,0.02-1.74,0-2.35c-0.01-0.1-0.02-0.24-0.05-0.4c0.37,0.12,0.74,0.19,1.11,0.18
				c0.83-0.03,1-1,0.4-1.45c-0.81-0.6-1.68-0.98-2.42-1.68c-0.28-0.27-0.51-0.64-0.74-1c0.69-0.6,1.39-1.23,2.1-1.91
				c0.46,0.67,1.2,1.2,1.87,1.6c0.84,0.51,2.32,1.26,3.29,0.88c0.06-0.02,0.11-0.06,0.16-0.09c0.54,0.06,1.13-0.13,1.57-0.41
				c0.8-0.53,1.28-1.45,1.49-2.36c0.39-1.7-0.55-4.19-2.5-4.43c-1.44-0.19-1.88,1.35-1.84,3.04c-0.25-0.13-0.54-0.22-0.77-0.33
				c-0.27-0.14-0.53-0.3-0.79-0.47c7.07-7.84,12.34-18.67-0.27-23.23c0.48-3.05,0.8-6.11,1.16-9.16c1.57,1.02,3.36,1.78,4.98,2.66
				c1.25,0.68,2.44,1.51,3.65,2.31c-0.84,0.71-1.61,1.48-2.33,2.35c-0.72,0.89-1.86,2.13-1.32,3.31c0.08,0.17,0.24,0.25,0.42,0.27
				c1.44,1.89,2.91,3.74,4.5,5.5c2.02,2.26,3.86,4.91,6.22,6.81c0.63,0.51,1.42-0.11,1.09-0.84c-2.12-4.68-6.9-8.56-10.66-12.04
				c0.49-0.55,0.83-1.36,1.21-1.88c0.65-0.93,1.35-1.83,2.04-2.73c0.69,0.42,1.38,0.81,2.1,1.13c0.5,0.23,1.17-0.26,0.82-0.81
				c-1.35-2.09-3.81-3.46-5.89-4.73c-1.94-1.18-4.31-2.47-6.62-3.04c0.38-3.02,0.84-6.04,1.59-9.04c0.81-3.27,2-6.44,3.75-9.33
				c0.07-0.12,0.15-0.24,0.22-0.35c1.66-2.57,3.81-3.88,6.4-5.08c0.06,0.73,0.09,1.47,0.15,2.2c-0.46,0.41-0.88,0.88-1.22,1.23
				c-0.58,0.61-1.03,1.29-1.39,2.02c-0.1-0.41-0.21-0.82-0.31-1.24c-0.15-0.62-1.18-0.5-1.13,0.16c0.36,5.01,1.46,9.93,2.88,14.77
				c1.06,3.61,2.31,7.17,3.58,10.68c3.14,8.73,5.89,18.11,9.9,26.46c0.49,1.02,1.86,0.25,1.7-0.72c-0.28-1.61-0.65-3.21-1.11-4.81
				c0.04-0.06,0.07-0.12,0.1-0.2c2.08-7.54,3.2-15.47,4.96-23.11c0.8-3.48,1.7-7.07,2.4-10.71c0,0,0,0,0-0.01
				c0.82-4.25,1.36-8.56,1.15-12.77c-0.04-0.67-1.05-0.88-1.22-0.2c-0.87-0.93-1.99-1.79-3.15-2.34c0.09-0.76,0.14-1.53,0.18-2.3
				c0.01,0,0.02,0.01,0.03,0.01c2.52,1.87,4.52,3.93,6.11,6.23c2.28,3.27,3.76,7.03,4.85,11.42c0.48,1.93,0.86,3.89,1.19,5.86
				c-2.97,2.11-5.69,4.49-8.09,7.25c-0.32,0.36,0.11,1.02,0.54,0.7c0.83-0.62,1.66-1.25,2.48-1.89c0.61,1.21,1.4,2.35,2.1,3.5
				c0.55,0.9,1.08,1.8,1.79,2.55c-1.89,2.01-3.29,4.6-4.9,6.82c-1.94,2.66-4.45,5.25-5.81,8.27c-0.3,0.66,0.42,1.2,0.98,0.75
				c2.36-1.86,4.13-4.67,5.9-7.07c1.79-2.43,4-5.08,5.09-7.95c0.4-0.07,0.76-0.52,0.62-0.94c-0.45-1.44-1.44-2.64-2.29-3.86
				c-0.71-1.01-1.41-2.1-2.26-3.01c1.37-1.07,2.75-2.12,4.17-3.13c0.61,4.08,1.03,8.2,1.58,12.28c-4.34,2.26-4.6,8.57-1.91,12.45
				c1.55,2.25,4.09,3.69,7.4,3.06c2.66-0.51,4.63-2.09,5.76-4.18C279.13,225.27,279.18,227.64,278.39,230.19z"/>
			<path style="fill:#FFFFFF;" d="M322.7,170.7c-2.92,13.59-3.55,27.45-7.86,40.79c-2.47,7.66-8.06,9.54-15.51,8.52
				c-6.86-0.93-13.39-3.2-20.02-5.06c-0.25-0.07-0.47-0.06-0.66-0.02c-0.88-2.06-2.55-3.47-4.48-4.11c0.22-1.59,0.46-3.18,0.69-4.77
				c0.91-6.22,1.75-12.47,1.02-18.74c7.35,3.39,15.39,5.82,22.51,8.43c1.11,0.41,1.75-0.84,1.36-1.7c1.85-3.62,2.79-7.79,3.91-11.66
				c1.26-4.33,3.07-9.32,3.15-13.88c1.94,0.71,4.07,0.79,6.14,0.95c1.67,0.14,3.31,0.28,4.95,0.48
				C319.5,170.13,321.1,170.37,322.7,170.7z"/>
			<path style="fill:#FECE8B;" d="M330.7,151.03c-0.2,1.17-0.74,2.39-1.72,3.1c-0.94,0.68-1.91,0.45-2.9,0.37
				c1.19-1.02,1.85-2.6,2.14-4.15c0.09-0.45,0.15-0.9,0.18-1.34c0.09-1.26-0.12-2.48-0.56-3.53c1.76,0.27,2.68,1.81,2.9,3.52
				C330.83,149.67,330.81,150.37,330.7,151.03z"/>
			<path style="fill:#B2BBD3;" d="M224.402,236.144c-0.153-0.501-0.282-1.102-0.359-1.725c-0.502,0.152-1.114-0.218-1.534-0.473
				c-0.023-0.014-0.04-0.03-0.064-0.044c-0.016,0.025-0.024,0.054-0.045,0.079c-0.255,0.297-0.469,0.618-0.701,0.93
				c0.339,0.27,0.69,0.525,1.095,0.718C223.291,235.864,223.869,235.971,224.402,236.144z"/>
			<path style="fill:#FECE8B;" d="M325.65,163.71c-1.58,1.39-3.61,2.35-4.81,4.11c-1.26-0.22-2.53-0.37-3.81-0.48
				c-0.58-0.06-1.17-0.11-1.75-0.15c-1.57-0.12-3.2-0.32-4.83-0.44c0.01-0.21,0.01-0.42,0-0.63c0.53,0.05,1.07,0.04,1.62-0.04
				c0.55-0.09,0.42-0.83,0-0.98c-0.66-0.24-1.28-0.51-1.88-0.8c-0.13-0.29-0.42-0.4-0.68-0.35c-2.68-1.49-4.57-3.68-5-7.14
				c-0.34-2.76,1.26-5.03,3.45-6.52c1.34-0.91,2.95-1.49,4.58-1.64c0.41-0.04,0.83-0.05,1.24-0.03c0.65,0.04,1.4,0.31,1.47,1.04
				c0.2,2.22-4.19,2-5.41,2.13c-0.71,0.07-1.02,0.98-0.52,1.38c0.05,0.16,0.17,0.3,0.36,0.37c1.39,0.53,2.57,1.35,3.62,2.39
				c0.97,0.96,1.41,2.27,2.34,3.22c0.39,0.4,1.27,0.14,1.2-0.49c-0.18-1.51-1.35-2.83-2.39-3.87c-0.55-0.54-1.17-0.98-1.83-1.34
				c0.26-0.03,0.53-0.09,0.79-0.14c0.04,0.05,0.09,0.09,0.15,0.13c0.28,0.13,0.56,0.28,0.81,0.45c0.28,0.21,0.67,0.28,1.02,0.33
				c0.76,1.22,2.35,1.9,3.75,1.52c1.37,0.28,2.73,0.54,4.1,0.75c-2.63,1.38-4.59,4.11-5.41,6.88c-0.16,0.53,0.64,0.74,0.82,0.23
				c1.13-3.4,3.54-5.09,6.41-6.8c0.67,0.11,1.36,0.17,1.96,0.02c0.29,0,0.58-0.02,0.87-0.07
				C328.02,159.41,327.86,161.75,325.65,163.71z"/>
			<path style="fill:#FFFFFF;" d="M220.708,213.379c-2.105,2.436-3.511,4.68-3.172,8.075c0.272,2.739,1.132,5.271,2.352,7.713
				C224.285,223.835,227.498,216.803,220.708,213.379z"/>
			<path style="fill:#FFFFFF;" d="M216.902,232.394c-0.589-0.735-1.129-1.488-1.62-2.258c-0.157,0.492-0.288,0.991-0.378,1.499
				c-0.063,0.351-0.085,0.747-0.122,1.146c0.314,0.318,0.52,0.758,0.388,1.176C215.72,233.495,216.304,232.969,216.902,232.394z"/>
			<path style="fill:#B2BBD3;" d="M234.41,173.448c-0.132-0.178-0.241-0.378-0.422-0.516c-0.057-0.043-0.108-0.092-0.152-0.143
				c-3.03,1.055-5.569,2.366-7.47,5.413c-1.544,2.474-2.618,5.166-3.422,7.954c0.004,0.114-0.031,0.231-0.102,0.346
				c-0.131,0.471-0.258,0.943-0.375,1.419c-0.927,3.757-1.627,7.574-2.066,11.419c-0.425,3.717-1.242,7.579-0.999,11.319
				c0.009,0.027-0.001,0.058,0.004,0.086c0.511-0.162,1.057-0.369,1.602-0.433c-0.115-0.104-0.2-0.238-0.199-0.418
				c0.074-7.948,1.176-17.085,3.9-24.579C226.305,180.923,229.39,174.747,234.41,173.448z"/>
			<path style="fill:#FFFFFF;" d="M220.738,188.74c-2.22,2.311-4.393,4.582-6.458,6.934c0.856,5.018,2.282,10.026,2.987,15.068
				c0.404-0.152,0.83-0.271,1.277-0.348c-0.644-4.407,0.537-9.208,1.033-13.605C219.881,194.105,220.203,191.398,220.738,188.74z"/>
			<path style="fill:#B2BBD3;" d="M217.252,214.959c-0.478-0.174-0.764-0.626-0.966-1.126c-3.177,3.802-2.644,8.839-0.486,13.431
				c0.231,0.159,0.354,0.426,0.351,0.702c0.413,0.808,0.867,1.601,1.364,2.365c0.101-0.083,0.207-0.162,0.309-0.229
				c0.169-0.111,0.337-0.238,0.521-0.322c0.035-0.016,0.07-0.029,0.104-0.044c-2.061-4.105-3.913-10.811-1.189-14.778
				C217.257,214.959,217.254,214.96,217.252,214.959z"/>
			<path style="fill:#340702;" d="M309.507,133.115c0.152-0.982,0.352-2.085,0.673-3.133c-3.289-4.961-7.076-9.514-11.139-13.449
				c-0.197-0.191-0.402-0.377-0.603-0.565c-0.207,0.805-0.419,1.61-0.638,2.413C302.36,122.752,306.269,127.721,309.507,133.115z"/>
			<path style="fill:#340702;" d="M225.846,101.623c-2.174,0.841-3.771,2.333-5.077,4.231c-0.406,0.589,0.47,1.198,0.956,0.739
				c1.37-1.295,3.003-2.04,4.753-2.675C227.917,103.396,227.27,101.072,225.846,101.623z"/>
			<path style="fill:#340702;" d="M260.195,102.521c-0.376-0.005-0.848,0.219-1.01,0.58c-0.089,0.198-0.168,0.366-0.16,0.59
				c0.015,0.382,0.205,0.842,0.58,1.01c0.66,0.297,1.365,0.445,2.051,0.675c0.751,0.251,1.447,0.705,2.041,1.22
				c0.654,0.567,1.853-0.198,1.275-0.983C263.885,104.134,262.143,102.547,260.195,102.521z"/>
			<path style="fill:#340702;" d="M228.621,117.437c-0.392-0.872-1.769-0.982-2.376-0.306c-0.181,0.201-0.338,0.433-0.481,0.68
				c-1.076-0.172-1.623-0.909-2.24-1.727c-0.163-0.215-0.616-0.188-0.58,0.157c0.032,0.315,0.035,0.566,0.188,0.853
				c0.162,0.304,0.385,0.58,0.624,0.827c0.422,0.438,0.986,0.718,1.571,0.866c-0.614,1.83-0.434,4.174,0.664,5.499
				c0.974,1.174,2.88,0.442,3.26-0.86c0.292-0.999-0.028-2.002-0.075-3.02C229.127,119.378,229.045,118.379,228.621,117.437z"/>
			<path style="fill:#340702;" d="M263.929,116.084c-0.618,0.818-1.164,1.555-2.24,1.727c-0.144-0.246-0.301-0.479-0.482-0.68
				c-0.607-0.676-1.984-0.565-2.376,0.306c-0.425,0.942-0.507,1.941-0.555,2.968c-0.048,1.018-0.367,2.021-0.075,3.02
				c0.38,1.303,2.286,2.035,3.26,0.86c1.099-1.325,1.279-3.67,0.665-5.499c0.585-0.148,1.148-0.428,1.571-0.866
				c0.238-0.247,0.461-0.523,0.623-0.827c0.153-0.287,0.156-0.538,0.189-0.853C264.545,115.896,264.092,115.868,263.929,116.084z"/>
			<path style="fill:#340702;" d="M242.572,137.032c1.381-0.067,2.215-0.845,2.848-2.039c0.303-0.571-0.382-1.033-0.851-0.657
				c-0.561,0.451-0.892,1.057-1.52,1.312c-0.439-2.12,0.039-4.255,0.82-6.262c0.195-0.5-0.647-0.854-0.867-0.366
				c-1.081,2.4-1.702,4.943-1.041,7.547C242.029,136.829,242.297,137.045,242.572,137.032z"/>
			<path style="fill:#340702;" d="M250.114,143.807c-3.948,0.629-7.732,1.564-11.742,1.895c-0.37,0.031-0.438,0.46-0.205,0.636
				c-0.063,0.125-0.081,0.277-0.011,0.456c0.999,2.559,3.874,14.243,8.858,10.799c1.691-1.169,2.409-3.588,2.94-5.45
				c0.583-2.047,1.492-5.343,0.854-7.55C250.948,144.213,250.649,143.722,250.114,143.807z M247.215,155.204
				c-1.546,2.735-3.202,1.369-4.596-1.039c0.767-1.225,1.667-2.232,2.908-3.059c1.136-0.757,2.308-0.889,3.547-1.123
				C248.691,151.795,248.126,153.591,247.215,155.204z M249.256,148.952c-2.699-0.117-5.647,2.081-7.073,4.413
				c-1.35-2.625-2.395-5.982-2.751-6.912c3.4,0.094,7.123-0.286,10.35-1.302C249.46,146.357,249.425,147.713,249.256,148.952z"/>
			<path style="fill:#340702;" d="M271.555,215.628c-0.112-0.191-0.321-0.316-0.561-0.217c-1.584,0.651-2.585,2.256-1.98,3.964
				c0.513,1.451,2.025,2.17,3.438,1.55c1.438-0.632,2.506-2.944,1.554-4.325c-0.439-0.637-1.173-0.892-1.91-0.968
				C271.93,215.615,271.744,215.616,271.555,215.628z M271.796,219.695c-0.643,0.27-1.224-0.231-1.436-0.817
				c-0.248-0.679,0.026-1.304,0.438-1.841c0.717-0.213,1.43-0.503,2.1,0.105C273.646,217.821,272.489,219.405,271.796,219.695z"/>
			<path style="fill:#340702;" d="M327.098,144.159c-0.987-1.332-2.476-2.147-4.303-1.989c-0.136-0.304-0.293-0.598-0.474-0.88
				c-1.21-1.88-3.203-2.156-5.077-1.566c0.849-6.678,0.983-14.874-3.691-13.771c-1.818,0.429-2.793,2.134-3.373,4.029
				c0.28,0.422,0.563,0.842,0.835,1.27c-0.246,0.059-0.454,0.241-0.521,0.583c-0.228,1.179-0.267,1.408-0.299,2.429
				c-0.223-0.387-0.459-0.766-0.689-1.149c-0.073,0.472-0.137,0.919-0.196,1.313c-0.623,4.132-0.94,8.598-0.557,12.794
				c-3.66,1.501-6.441,4.645-6.579,8.705c-0.141,4.107,2.714,8.626,6.654,9.883c-0.018,0.141-0.038,0.281-0.052,0.422
				c-0.016,0.146-0.038,0.289-0.061,0.43c-0.828-0.018-1.647-0.002-2.448,0.082c-0.257,0.027-0.477,0.189-0.609,0.397
				c-0.268,0.028-0.516,0.165-0.652,0.473c-1.733,3.909-2.249,8.529-3.332,12.671c-1.104,4.221-2.692,8.501-3.423,12.826
				c-5.394-1.93-10.791-3.843-16.114-5.962c-6.379-2.54-12.256-5.854-18.397-8.86c-0.065-0.032-0.131-0.046-0.196-0.054
				c-2.42-3.763-5.895-6.754-10.451-7.371c0.02-0.255,0.036-0.51,0.064-0.764c10.938,1.924,23.1,0.949,32.384-5.594
				c-0.024,1.685,0.075,3.353-0.293,5.041c-0.169,0.778,0.602,1.383,1.314,1.011c5.854-3.063,8.327-8.361,8.505-14.796
				c0.099-3.568-0.524-7.163-0.955-10.693c-0.62-5.074-0.398-9.878,0.635-14.898c0.822-3.998,1.989-7.888,3.054-11.792
				c-0.103-0.099-0.202-0.202-0.306-0.301c-0.309-0.292-0.625-0.58-0.939-0.87c0.028-0.038,0.058-0.075,0.082-0.124
				c0.15-0.311,0.278-0.626,0.405-0.942c0.082-0.068,0.143-0.154,0.185-0.258c0.189-0.133,0.334-0.335,0.364-0.624
				c0.002-0.026,0.008-0.051,0.011-0.077c0.281,0.26,0.557,0.522,0.836,0.783c1.09-4.244,1.955-8.533,2.021-13.02
				c0.127-8.574-3.946-16.859-9.191-23.423c-5.421-6.784-11.889-12.719-19.895-16.242c-7.861-3.459-16.614-4.432-25.062-5.416
				c-8.154-0.95-15.418-0.157-22.592,4.033c-7.046,4.115-12.619,10.533-17.966,16.571c-0.21-0.196-0.526-0.271-0.885-0.079
				c-7.57,4.072-13.597,10.618-16.325,18.813c-2.028,6.091-1.532,12.637,0.2,18.76c-0.2,0.188-0.401,0.377-0.599,0.568
				c-13.907,13.468-24.673,34.103-22.767,53.988c-0.064,0.97-0.103,1.944-0.071,2.909c-1.497,19.602,9.143,39.813,22.838,53.074
				c7.294,7.064,16.095,13.203,25.495,17.064c1.424,0.585,2.896,1.145,4.4,1.678c0.012,0.006,0.025,0.008,0.039,0.013
				c8.05,2.848,17.079,4.785,25.515,4.135c10.025,0.772,20.892-2.103,29.954-5.826c9.4-3.861,18.2-10,25.495-17.064
				c1.154-1.118,2.28-2.296,3.383-3.513c4.686,0.208,9.664-1.09,12.393-5.203c4.265-6.427,5.414-15.424,6.784-22.859
				c1.499-8.136,2.904-16.648,2.93-24.932c0.001-0.128-0.031-0.24-0.078-0.34c0.057-0.468-0.157-0.942-0.689-1.17
				c1.674-1.198,3.38-2.492,4.645-3.957c2.036-2.358,2.016-5.473,1.125-8.28c0.091-0.042,0.189-0.079,0.275-0.124
				c1.733-0.921,2.669-2.967,2.908-4.827C333.184,147.656,331.218,143.56,327.098,144.159z M323.172,149.187
				c0.359-1.754,0.501-3.748,0.087-5.565c2.252,0.379,3.115,2.917,2.945,5.384c-0.097,1.385-0.616,2.788-1.576,3.799
				c-0.926,0.974-2.046,0.854-3.179,1.069C322.379,152.468,322.88,150.606,323.172,149.187z M317.045,141.177
				c1.545-0.287,3.104-0.156,3.785,1.539c0.015,0.037,0.023,0.077,0.038,0.114c-0.153,0.295-0.043,0.679,0.246,0.831
				c0.343,1.498,0.213,3.152-0.048,4.619c-0.293,1.662-0.839,3.547-1.979,4.838c-1.097,1.243-1.813-0.287-2.69-1.026
				c1.034-0.825,1.54-2.037,0.896-3.712c-0.267-0.696-0.713-1.181-1.261-1.518C316.281,145.694,316.692,143.601,317.045,141.177z
				 M312.46,130.344c0.643-2.094,2.386-2.951,3.041-0.324c0.424,1.698,0.258,3.599,0.162,5.326
				c-0.206,3.674-1.072,7.282-1.339,10.944c-1.323-0.174-2.822,0.069-4.06,0.415C311.273,141.297,310.814,135.694,312.46,130.344z
				 M275.023,186.909c-0.062,0.074-0.105,0.172-0.097,0.306c0.42,7.852-0.803,15.596-1.672,23.374
				c-0.905-0.176-1.844-0.193-2.767-0.029c-0.532-8.474-1.439-17.578-3.91-25.692c-0.402-1.32-0.917-2.648-1.535-3.936
				C268.058,183.262,271.45,185.207,275.023,186.909z M273.638,212.817c1.685,0.61,3.033,2.021,3.602,4.338
				c0.936,3.812-1.698,7.558-5.552,8.006c-3.423,0.398-5.707-2.501-6.372-5.523c-0.505-2.298,0.195-4.309,1.609-5.758
				c0.063-0.015,0.126-0.033,0.191-0.072c1.992-1.208,4.15-1.62,5.983-1.159C273.197,212.832,273.432,212.89,273.638,212.817z
				 M254.295,173.039c0.207-0.206,0.257-0.439,0.206-0.648c14.102,6.305,12.467,25.105,14.63,38.462
				c-0.205,0.036-0.404,0.077-0.598,0.127c-0.479-3.748-0.857-8.239-1.526-12.828c0.445-0.467,0.229-1.199-0.227-1.483
				c-1.545-9.674-4.559-19.479-12.673-23.441C254.175,173.16,254.239,173.094,254.295,173.039z M246.099,165.869
				c-5.988-0.286-11.22-0.583-16.865-3.223c-5.206-2.434-9.702-6.252-13.39-10.613c-7.708-9.115-6.482-21.054-7.415-32.111
				c0.826-2.918-0.009-6.273-0.349-9.23c-0.276-2.409-0.034-5.282-0.927-7.552c3.002-1.875,5.483-4.343,7.66-7.226
				c1.741-2.306,3.79-5.881,4.131-9.126c3.579,6.5,9.998,10.871,17.092,13.582c7.84,2.997,21.099,4.039,28.01-1.713
				c0.001-0.001,0.002-0.003,0.005-0.005c5.707,1.017,11.935,0.737,16.281-1.61c-0.106,2.245,0.541,4.923,1.864,6.384
				c-0.692,2.781-0.938,5.679-1.302,8.519c-0.372,2.887-0.816,5.913-0.4,8.814c-0.751,11.084,0.011,22.135-7.473,31.338
				C266.6,159.999,256.043,164.421,246.099,165.869z M244.69,185.865c-3.954,0.234-7.513-1.39-10.982-3.035
				c-0.087-0.336-0.185-0.669-0.271-1.007c0.755-0.809,1.552-1.583,2.344-2.355c0.083-0.081,0.176-0.159,0.268-0.236
				c0.026,0.079,0.046,0.16,0.075,0.237c0.233,0.634,1.263,0.972,1.608,0.21c0.356-0.785,0.51-1.645,0.551-2.529
				c0.035-0.073,0.076-0.142,0.102-0.219c0.078-0.237,0.025-0.46-0.098-0.64c-0.058-1.513-0.405-3.06-0.766-4.423
				c-0.204-0.772-0.503-1.482-0.862-2.151c4.709,2.997,10.223,1.212,14.964-2.07c-1.446,3.152-1.63,6.867-1.207,10.328
				c0.128,1.04,1.591,1.39,1.916,0.259c0.015-0.051,0.021-0.102,0.036-0.153c0.302,0.139,0.604,0.275,0.895,0.436
				c0.796,0.438,1.529,0.989,2.251,1.537c0.02,0.014,0.036,0.015,0.055,0.027c-0.064,0.319-0.123,0.638-0.185,0.958
				c-0.038,0.017-0.075,0.024-0.113,0.049C251.678,183.468,249.237,185.595,244.69,185.865z M254.724,184.549
				c-1.037,5.662-1.979,11.335-3.281,16.964c-1.497,6.469-3.624,13.272-4.167,20.003c-1.93-5.499-4.481-10.915-6.468-16.182
				c-2.571-6.815-4.733-13.697-6.613-20.697C240.198,188.2,249.838,189.996,254.724,184.549z M190.179,100.813
				c1.6-9.255,8.377-15.623,15.485-21.057c0.051-0.039,0.079-0.087,0.119-0.13c0.227,0.144,0.528,0.164,0.794-0.08
				c5.345-4.935,10.376-10.323,16.366-14.496c6.645-4.63,14.109-5.976,22.056-5.05c7.806,0.91,15.589,1.878,23.051,4.445
				c8.407,2.892,15.067,8.929,20.611,15.699c5.654,6.904,9.335,15.202,9.184,24.2c-0.145,8.584-3.733,16.855-5.607,25.137
				c-1.526,6.747-0.999,13.129-0.182,19.91c0.878,7.283,0.506,13.745-5.097,18.59c-0.066-1.573-0.163-3.132,0.051-4.723
				c0.074-0.549-0.467-1.212-1.052-0.809c-9.3,6.41-21.552,7.286-32.406,5.549c0.131-0.482,0.298-0.958,0.504-1.43
				c7.949-2.116,15.536-6.904,20.703-12.733c7.216-8.14,8.949-20.986,7.439-31.61c0.603-2.886,0.598-5.893,0.89-8.826
				c0.32-3.221,0.819-6.456,0.478-9.68c0.154-0.171,0.237-0.417,0.189-0.695c-0.236-1.345-0.947-2.619-1.298-3.955
				c-0.263-1.007-0.335-2.05-0.511-3.07c0.572-0.516,0.246-1.442-0.541-1.377c-0.17-0.061-0.369-0.026-0.519,0.094
				c-4.304,0.931-8.102,2.118-12.645,2.093c-4.974-0.027-9.49-1.36-14.216-2.674c-0.474-0.132-0.725,0.519-0.326,0.774
				c0.086,0.055,0.188,0.105,0.275,0.16c0.024,0.092,0.074,0.178,0.156,0.241c2.052,1.575,4.918,2.503,7.588,2.973
				c-15.721,6.487-36.589-2.084-44.107-17.118c-0.226-0.451-0.918-0.131-0.795,0.335c0.226,0.849,0.507,1.66,0.814,2.454
				c-0.095,0.063-0.182,0.14-0.241,0.249c-1.626,2.998-2.02,6.571-3.688,9.668c-2.175,4.037-5.39,7.419-9.275,9.83
				c-0.463,0.288-0.06,0.953,0.422,0.722c0.39-0.187,0.764-0.391,1.138-0.595c-0.715,2.095-0.222,4.758-0.046,6.864
				c0.251,3.033,0.117,6.486,1.097,9.377c0.035,0.104,0.092,0.186,0.156,0.258c-2.003,11.309-0.193,24.236,6.981,33.377
				c4.032,5.137,10.82,10.412,18.053,12.971c0.549,0.691,1.033,1.425,1.445,2.199c-8.704,0.082-22.861,1.582-27.65-7.386
				c-0.316-0.593-1.134-0.269-1.179,0.32c-0.132,1.747-0.408,3.454-0.569,5.181c-3.098-3.123-4.79-6.67-4.902-11.333
				c-0.088-3.691,1.246-7.314,1.884-10.914c1.403-7.918-2.812-13.42-6.357-20.05C191.014,117.424,188.756,109.041,190.179,100.813z
				 M189.69,224.956c-6.549-6.198-11.793-13.609-15.617-21.761c-4.307-9.185-5.682-18.992-6.913-28.927
				c0.052-1.393-0.047-2.807-0.16-4.208c1.277-10.377,2.579-20.637,7.073-30.22c3.779-8.057,8.951-15.385,15.394-21.54
				c0.362,1.069,0.754,2.122,1.178,3.153c1.777,4.326,4.39,8.11,6.602,12.198c2.639,4.877,1.87,9.864,0.678,14.987
				c-1.969,8.464-0.643,15.753,6.674,21.087c0.542,0.395,1.405-0.132,1.359-0.78c-0.125-1.738-0.004-3.453,0.082-5.179
				c6.391,8.385,18.586,7.891,28.413,7.355c0.07-0.004,0.135-0.017,0.199-0.03c0.005,0.014,0.009,0.028,0.014,0.042
				c-6.705-0.085-10.786,7.223-12.669,12.812c-0.212,0.627-0.398,1.262-0.572,1.899c-7.545,3.742-13.025,11.775-17.138,18.825
				c-4.135,7.092-8.471,16.269-9.683,24.66C192.913,227.915,191.271,226.453,189.69,224.956z M216.618,235.756
				c-0.245-0.1-0.525-0.049-0.667,0.196c-0.094,0.163-0.143,0.332-0.17,0.504c-0.361,0.298-0.721,0.598-1.081,0.888
				c0.238-0.597,0.354-1.205,0.413-1.85c0.001-0.012,0.002-0.025,0.002-0.038c0.01-0.004,0.021-0.003,0.031-0.008
				c5.838-2.994,15.024-16.102,8.866-21.442c0.055-0.032,0.105-0.075,0.144-0.133c0.208-0.318,0.208-0.722,0.224-1.094
				c0.001-0.032,0.005-0.063,0.007-0.095c3.634,3.146,4.371,7.092,1.634,12.283C223.811,229.156,220.271,232.665,216.618,235.756z
				 M222.4,233.98c0.021-0.024,0.029-0.053,0.045-0.079c0.023,0.014,0.041,0.03,0.064,0.044c0.42,0.255,1.032,0.624,1.534,0.473
				c0.077,0.624,0.206,1.224,0.359,1.725c-0.533-0.173-1.111-0.28-1.608-0.516c-0.405-0.193-0.756-0.448-1.095-0.718
				C221.931,234.598,222.145,234.277,222.4,233.98z M218.545,210.394c-0.448,0.077-0.873,0.196-1.277,0.348
				c-0.705-5.042-2.131-10.05-2.987-15.068c2.065-2.352,4.238-4.622,6.458-6.934c-0.535,2.658-0.857,5.365-1.16,8.049
				C219.082,201.186,217.901,205.986,218.545,210.394z M218.448,229.737c-0.035,0.016-0.069,0.028-0.104,0.044
				c-0.184,0.084-0.352,0.211-0.521,0.322c-0.102,0.067-0.208,0.145-0.309,0.229c-0.497-0.765-0.951-1.558-1.364-2.365
				c0.004-0.276-0.119-0.543-0.351-0.702c-2.158-4.592-2.69-9.629,0.486-13.431c0.203,0.499,0.488,0.952,0.966,1.126
				c0.002,0.001,0.005,0,0.007,0.001C214.535,218.926,216.388,225.632,218.448,229.737z M214.782,232.78
				c0.037-0.398,0.059-0.795,0.122-1.146c0.09-0.508,0.221-1.007,0.378-1.499c0.492,0.77,1.031,1.523,1.62,2.258
				c-0.598,0.576-1.182,1.102-1.732,1.563C215.302,233.539,215.097,233.099,214.782,232.78z M219.888,229.167
				c-1.22-2.442-2.08-4.975-2.352-7.713c-0.338-3.395,1.067-5.639,3.172-8.075C227.498,216.803,224.285,223.835,219.888,229.167z
				 M223.329,213.486c-0.774-0.513-1.731-0.93-2.895-1.229c-0.32-0.082-0.577,0.219-0.572,0.492
				c-0.835,0.408-1.512,0.928-2.059,1.53c-0.066-0.284-0.224-0.526-0.366-0.793c-0.099-0.187-0.193-0.376-0.29-0.564
				c0.206-0.194,0.403-0.391,0.632-0.577c0.625-0.154,1.232-0.402,1.849-0.588c0.714-0.216,1.511-0.279,2.162-0.652
				c0.08-0.046,0.129-0.105,0.164-0.168c0.542,0.326,1.037,0.665,1.505,1.01C223.33,212.46,223.229,213.022,223.329,213.486z
				 M220.809,209.893c-0.001,0.18,0.084,0.314,0.199,0.418c-0.545,0.064-1.091,0.271-1.602,0.433
				c-0.005-0.028,0.005-0.059-0.004-0.086c-0.242-3.74,0.575-7.602,0.999-11.319c0.44-3.845,1.14-7.662,2.066-11.419
				c0.117-0.476,0.244-0.948,0.375-1.419c0.07-0.115,0.105-0.232,0.102-0.346c0.804-2.788,1.877-5.48,3.422-7.954
				c1.901-3.046,4.44-4.358,7.47-5.413c0.044,0.051,0.096,0.099,0.152,0.143c0.181,0.138,0.29,0.338,0.422,0.516
				c-5.02,1.299-8.105,7.475-9.701,11.866C221.985,192.808,220.882,201.945,220.809,209.893z M217.582,241.709
				c0.008,0.387-0.062,0.839-0.113,1.298c-1.033-0.392-2.061-0.798-3.076-1.229c-6.331-2.685-12.293-6.458-17.746-10.78
				c1.559-3.595,2.436-7.488,3.728-11.185c1.524-4.358,3.464-8.552,5.655-12.61c2.154-3.988,4.734-7.436,7.535-10.7
				c0.429,4.904,1.367,9.969,2.723,14.708c-2.395,1.38-3.83,4.131-4.078,7.011c-0.321,3.735,0.472,7.121,2.093,10.227
				c-0.373,0.901-0.692,1.812-0.908,2.77c-0.076,0.337-0.164,0.722-0.223,1.116c-0.04,0.008-0.075,0.013-0.117,0.022
				c-0.687,0.156-1.143,0.797-1.427,1.484c-0.02,0.021-0.042,0.04-0.059,0.067c-0.684,1.133-0.972,2.619-0.725,3.934
				c0.177,0.947,0.948,1.605,1.921,1.456c0.435-0.066,0.806-0.31,1.113-0.628c0.175,0.501,0.772,0.904,1.279,0.534
				c0.379-0.277,0.772-0.577,1.174-0.896c0.224,0.352,0.477,0.678,0.695,0.942c0.193,0.235,0.419,0.466,0.665,0.686
				C217.485,240.475,217.57,241.211,217.582,241.709z M214,234.677c-0.015,0.133-0.023,0.266-0.047,0.396
				c-0.099,0.546-0.273,1.069-0.473,1.586c-0.11,0.288-0.342,0.659-0.482,0.822c-0.047,0.054-0.098,0.104-0.149,0.154
				c-0.027,0.026-0.056,0.05-0.084,0.075c-0.008,0.005-0.007,0.004-0.021,0.014c-0.048,0.034-0.1,0.062-0.153,0.089
				c-0.009,0.004-0.005,0.004-0.01,0.007c-0.011,0.001-0.024,0.003-0.065,0.014c-0.002,0-0.002,0-0.003,0.001
				c-0.009,0-0.02-0.001-0.03-0.002c-0.001,0-0.001,0-0.002-0.001c-0.017-0.012-0.034-0.023-0.047-0.032
				c-0.021-0.021-0.044-0.042-0.065-0.063c-0.025-0.024-0.033-0.031-0.042-0.039c0.002-0.001-0.001-0.01-0.019-0.038
				c-0.114-0.173-0.085-0.128-0.151-0.341c-0.251-0.808-0.06-1.713,0.076-2.564c0.247-0.433,0.527-0.876,0.91-1.144
				c0.047,0.319,0.144,0.62,0.33,0.874C213.614,234.685,213.815,234.736,214,234.677z M273.511,237.837
				c0.904,0.004,1.737-0.223,2.5-0.606c0.052,0.993,0.157,1.984,0.177,2.988c-1.119,0.553-2.252,1.074-3.397,1.56
				c-5.181,2.197-10.593,3.919-16.143,4.887c-2.71,0.472-5.399,0.706-8.093,0.889c-0.011-2.481,0.044-4.959,0.174-7.434
				c2.838-0.552,5.65-1.214,8.401-2.015c0.644-0.188,0.37-1.109-0.274-0.991c-2.692,0.496-5.372,1.042-8.053,1.592
				c0.066-1.02,0.146-2.038,0.242-3.057c0.047-0.505-0.806-0.622-0.888-0.12c-0.185,1.135-0.347,2.272-0.494,3.41
				c-3.908,0.802-7.817,1.602-11.76,2.263c-0.376,0.064-0.29,0.699,0.09,0.667c3.829-0.325,7.689-0.823,11.508-1.52
				c-0.276,2.426-0.461,4.86-0.526,7.308c-1.126,0.072-2.252,0.141-3.383,0.221c-4.369-0.31-8.687-0.453-13.055-1.214
				c-3.743-0.653-7.42-1.655-11.008-2.908c0.118-0.809,0.025-1.737-0.001-2.352c-0.004-0.094-0.02-0.233-0.046-0.393
				c0.365,0.121,0.739,0.19,1.113,0.176c0.821-0.032,0.999-1,0.393-1.45c-0.803-0.596-1.682-0.98-2.414-1.683
				c-0.281-0.27-0.51-0.634-0.741-0.999c0.689-0.597,1.391-1.231,2.096-1.911c0.46,0.677,1.204,1.206,1.872,1.608
				c0.839,0.505,2.321,1.253,3.292,0.874c0.056-0.021,0.107-0.054,0.157-0.091c0.537,0.064,1.134-0.129,1.569-0.411
				c0.805-0.522,1.281-1.442,1.49-2.352c0.39-1.704-0.554-4.189-2.499-4.438c-1.439-0.183-1.876,1.354-1.839,3.046
				c-0.248-0.135-0.545-0.219-0.774-0.334c-0.269-0.136-0.529-0.301-0.785-0.472c7.071-7.834,12.335-18.663-0.268-23.226
				c0.473-3.054,0.792-6.112,1.153-9.163c1.571,1.02,3.36,1.784,4.983,2.664c1.246,0.675,2.439,1.507,3.645,2.303
				c-0.838,0.716-1.606,1.483-2.323,2.358c-0.722,0.882-1.866,2.129-1.326,3.305c0.079,0.171,0.248,0.25,0.422,0.271
				c1.44,1.885,2.913,3.736,4.497,5.503c2.02,2.255,3.868,4.902,6.227,6.809c0.624,0.504,1.421-0.108,1.089-0.841
				c-2.123-4.683-6.903-8.562-10.664-12.045c0.491-0.549,0.837-1.355,1.209-1.88c0.657-0.926,1.354-1.827,2.045-2.729
				c0.687,0.421,1.383,0.815,2.103,1.138c0.497,0.223,1.163-0.263,0.811-0.81c-1.349-2.096-3.801-3.467-5.889-4.734
				c-1.941-1.179-4.311-2.466-6.616-3.036c0.383-3.026,0.843-6.044,1.586-9.04c0.813-3.276,2.001-6.445,3.749-9.337
				c1.695-2.801,3.916-4.181,6.624-5.424c0.062,0.731,0.091,1.468,0.152,2.193c-0.465,0.414-0.885,0.88-1.22,1.231
				c-0.58,0.609-1.034,1.287-1.394,2.02c-0.103-0.413-0.209-0.823-0.31-1.236c-0.151-0.624-1.179-0.501-1.131,0.153
				c0.636,8.767,3.505,17.231,6.46,25.45c3.139,8.731,5.89,18.11,9.901,26.465c0.49,1.02,1.864,0.249,1.7-0.716
				c-0.274-1.611-0.654-3.218-1.108-4.819c0.037-0.06,0.074-0.118,0.095-0.194c2.08-7.544,3.204-15.466,4.967-23.107
				c1.743-7.552,3.936-15.687,3.545-23.499c-0.033-0.668-1.048-0.878-1.219-0.192c-0.864-0.934-1.984-1.793-3.15-2.339
				c0.095-0.767,0.144-1.538,0.179-2.307c0.01,0.003,0.019,0.008,0.028,0.01c6.109,4.52,9.115,10.158,10.966,17.655
				c0.477,1.932,0.855,3.887,1.186,5.854c-2.971,2.117-5.686,4.489-8.091,7.251c-0.313,0.359,0.11,1.02,0.541,0.7
				c0.835-0.619,1.659-1.252,2.482-1.887c0.615,1.205,1.399,2.352,2.099,3.498c0.551,0.903,1.077,1.802,1.789,2.552
				c-1.884,2.013-3.286,4.601-4.899,6.815c-1.939,2.662-4.448,5.258-5.807,8.269c-0.301,0.667,0.419,1.205,0.983,0.759
				c2.357-1.861,4.124-4.678,5.898-7.079c1.791-2.422,3.998-5.072,5.083-7.95c0.407-0.066,0.761-0.516,0.628-0.94
				c-0.451-1.44-1.443-2.632-2.298-3.858c-0.702-1.009-1.405-2.098-2.254-3.012c1.373-1.063,2.751-2.121,4.165-3.126
				c0.61,4.081,1.036,8.202,1.584,12.276c-6.849,3.578-3.531,17.23,5.487,15.511c2.667-0.509,4.637-2.091,5.759-4.179
				c0.86,2.379,0.913,4.75,0.119,7.301c-0.924,2.967-3.459,4.155-5.481,6.186C272.376,236.906,272.764,237.835,273.511,237.837z
				 M225.645,231.993c-0.022,0.051,0.019-0.019,0.046-0.077c0.054,0.02,0.145,0.048,0.214,0.102
				c0.572,0.446,0.863,1.123,0.902,1.832c0.034,0.636-0.207,1.283-0.627,1.755c-0.23,0.261-0.513,0.37-0.809,0.452
				C225.143,234.731,225.175,233.053,225.645,231.993z M297.494,224.956c-5.634,5.334-12.006,10.26-18.906,14.01
				c-0.095-1.081-0.295-2.139-0.652-3.166c1.376-1.378,2.393-3.24,3.014-4.904c1.29-3.452,0.438-7.429-1.858-10.213
				c0.222-0.967,0.299-1.985,0.207-3.021c6.588,2.303,13.478,4.18,20.42,5.061C298.993,223.482,298.259,224.233,297.494,224.956z
				 M314.839,211.494c-2.473,7.659-8.058,9.531-15.509,8.519c-6.86-0.932-13.387-3.198-20.019-5.059
				c-0.247-0.069-0.467-0.066-0.662-0.02c-0.875-2.069-2.55-3.478-4.475-4.111c1.054-7.794,2.621-15.636,1.709-23.516
				c7.349,3.395,15.39,5.819,22.502,8.43c1.113,0.409,1.75-0.841,1.36-1.703c1.85-3.614,2.789-7.79,3.914-11.652
				c1.264-4.335,3.073-9.322,3.146-13.888c1.946,0.713,4.077,0.791,6.144,0.957c3.288,0.264,6.515,0.58,9.746,1.245
				C319.779,184.285,319.146,198.146,314.839,211.494z M325.649,163.708c-1.575,1.392-3.61,2.357-4.81,4.107
				c-1.839-0.313-3.699-0.484-5.563-0.625c-1.565-0.118-3.196-0.321-4.822-0.441c0.009-0.205,0.004-0.414-0.009-0.625
				c0.531,0.042,1.073,0.039,1.627-0.048c0.543-0.086,0.422-0.828,0-0.98c-0.657-0.237-1.285-0.502-1.882-0.794
				c-0.133-0.292-0.419-0.406-0.682-0.354c-2.68-1.484-4.573-3.674-4.996-7.139c-0.338-2.764,1.262-5.03,3.447-6.518
				c1.685-1.146,3.786-1.777,5.819-1.667c0.653,0.035,1.403,0.306,1.47,1.035c0.2,2.219-4.189,2.005-5.411,2.129
				c-0.71,0.072-1.02,0.984-0.515,1.379c0.051,0.156,0.162,0.298,0.361,0.374c1.386,0.529,2.569,1.349,3.619,2.39
				c0.964,0.956,1.407,2.27,2.339,3.219c0.392,0.399,1.27,0.135,1.194-0.495c-0.182-1.506-1.349-2.827-2.391-3.867
				c-0.544-0.542-1.165-0.979-1.826-1.345c0.264-0.029,0.527-0.084,0.79-0.134c0.04,0.049,0.088,0.093,0.154,0.125
				c0.275,0.131,0.553,0.279,0.802,0.457c0.288,0.206,0.67,0.278,1.024,0.323c0.762,1.222,2.353,1.902,3.754,1.524
				c1.362,0.278,2.722,0.542,4.098,0.75c-2.633,1.382-4.593,4.115-5.414,6.884c-0.156,0.528,0.645,0.739,0.817,0.226
				c1.139-3.4,3.542-5.087,6.419-6.796c0.67,0.105,1.357,0.163,1.957,0.018c0.291-0.003,0.583-0.025,0.873-0.072
				C328.024,159.415,327.86,161.754,325.649,163.708z M330.701,151.025c-0.199,1.171-0.739,2.395-1.724,3.107
				c-0.942,0.68-1.911,0.45-2.893,0.372c1.535-1.324,2.181-3.56,2.314-5.498c0.088-1.258-0.118-2.472-0.559-3.525
				C330.295,145.86,331.099,148.692,330.701,151.025z"/>
			<path style="fill:#340702;" d="M310.195,134.265c0.032-1.021,0.07-1.25,0.299-2.429c0.066-0.342,0.275-0.524,0.521-0.583
				c-0.272-0.428-0.555-0.848-0.835-1.27c-0.321,1.049-0.521,2.151-0.673,3.133C309.736,133.498,309.972,133.877,310.195,134.265z"
				/>
			<path style="fill:#340702;" d="M297.592,115.261c-0.03,0.29-0.176,0.492-0.364,0.624c-0.042,0.104-0.103,0.19-0.185,0.258
				c-0.127,0.316-0.255,0.632-0.405,0.942c-0.024,0.049-0.054,0.086-0.082,0.124c0.314,0.289,0.631,0.577,0.939,0.87
				c0.104,0.098,0.203,0.202,0.306,0.301c0.219-0.803,0.431-1.608,0.638-2.413c-0.278-0.261-0.554-0.524-0.836-0.783
				C297.6,115.21,297.594,115.235,297.592,115.261z"/>
			<path style="fill:#6C2813;" d="M290.71,120c-2.27,8.17-2.93,16.79-1.95,25.22c0.54,4.6,1.54,9.4-0.04,13.75
				c-0.6-1.43-1.2-2.87-1.8-4.3c-1.35,3.61-4.66,6.12-8.03,8c-7.59,4.24-16.68,6.29-25.13,4.67c0.08-0.26,0.19-0.52,0.3-0.77
				c7.94-2.12,15.53-6.91,20.7-12.74c7.21-8.14,8.95-20.98,7.44-31.61c0.6-2.88,0.6-5.89,0.89-8.82c0.32-3.22,0.82-6.46,0.48-9.68
				c0.15-0.17,0.23-0.42,0.18-0.7c-0.23-1.34-0.94-2.62-1.29-3.95c-0.27-1.01-0.34-2.05-0.51-3.07c0.57-0.52,0.24-1.44-0.55-1.38
				c-0.17-0.06-0.36-0.02-0.51,0.09c-4.31,0.94-8.11,2.12-12.65,2.1c-4.97-0.03-9.49-1.36-14.22-2.68
				c-0.47-0.13-0.72,0.52-0.32,0.78c0.08,0.05,0.19,0.1,0.27,0.16c0.03,0.09,0.08,0.18,0.16,0.24c2.05,1.57,4.92,2.5,7.59,2.97
				c-15.72,6.49-36.59-2.08-44.11-17.12c-0.22-0.45-0.92-0.13-0.79,0.34c0.22,0.85,0.5,1.66,0.81,2.45
				c-0.09,0.07-0.18,0.14-0.24,0.25c-1.63,3-2.02,6.57-3.69,9.67c-2.17,4.04-5.39,7.42-9.27,9.83c-0.47,0.29-0.06,0.95,0.42,0.72
				c0.39-0.18,0.76-0.39,1.14-0.59c-0.72,2.09-0.23,4.76-0.05,6.86c0.25,3.03,0.12,6.49,1.1,9.38c0.03,0.1,0.09,0.18,0.15,0.26
				c-2,11.31-0.19,24.23,6.98,33.37c4.04,5.14,10.82,10.42,18.06,12.97c0.55,0.7,1.03,1.43,1.44,2.2
				c-5.62,0.06-13.53,0.71-19.71-1.26c-4.27-3.87-7.13-9.24-7.08-14.95c-1.26,1.39-2.1,3.16-2.38,5.01
				c-1.8-4.46-0.31-9.47,0.52-14.21c0.62-3.53,0.85-7.18,0.17-10.7c-1.29-6.64-5.66-12.23-8.04-18.56
				c-1.72-4.59-2.38-9.57-1.91-14.45c0.17-1.82,0.51-3.64,1.21-5.33c2.25-5.35,9.25-6.42,12.71-11.08
				c2.89-3.88,6.09-7.85,10.58-9.63c2.29-0.9,4.78-1.18,7.24-1.3c8.37-0.4,16.81,0.94,24.64,3.92c-3.39-2.94-7.66-4.72-12.02-5.74
				c-4.37-1.02-8.87-1.32-13.35-1.58c2-1.46,4.42-2.24,6.84-2.82c6.8-1.64,13.93-1.89,20.83-0.72c9.77,1.66,18.87,6.08,27.22,11.4
				c4.3,2.74,6.34,7.3,9,11.65c2.67,4.35,4.47,9.33,4.47,14.43C294.6,108.8,292.27,114.36,290.71,120z"/>
			<path style="fill:#F68D8F;" d="M251.62,167.65c-0.72,1.56-1.12,3.26-1.29,5c-3.29,0.96-6.71,1.72-10.08,1.2
				c-0.82-0.13-1.63-0.35-2.41-0.66c-0.1-0.45-0.21-0.9-0.32-1.32c-0.2-0.77-0.5-1.48-0.86-2.15
				C241.37,172.71,246.88,170.93,251.62,167.65z"/>
			<path style="fill:#F68D8F;" d="M280.9,111.94c-0.38,2.89-0.82,5.92-0.4,8.82c-0.76,11.08,0.01,22.13-7.48,31.34
				c-6.42,7.9-16.98,12.32-26.92,13.77c-0.65-0.03-1.29-0.06-1.93-0.1c1.48-0.27,2.95-0.61,4.4-1.03
				c5.34-1.56,10.45-4.46,13.67-8.99c2.59-3.66,3.77-8.1,4.74-12.47c2.1-9.47,3.41-19.12,3.89-28.81c0.13-2.47,0.2-4.97-0.33-7.38
				c-0.33-1.53-0.93-3.04-2.03-4.16c-1.95-1.99-4.93-2.27-7.79-2.2c1.22-0.56,2.34-1.24,3.33-2.07v-0.01
				c5.71,1.02,11.94,0.74,16.28-1.61c-0.1,2.25,0.54,4.92,1.87,6.39C281.5,106.21,281.26,109.1,280.9,111.94z"/>
			<path style="fill:none;" d="M268.944,203.189c2.302,1.685,4.629,3.385,7.249,4.516c1.622,0.701,3.332,1.172,5.037,1.637
				c4.529,1.235,9.075,2.441,13.705,3.217c2.298,0.385,4.644,0.665,6.954,0.358c2.31-0.307,4.603-1.253,6.155-2.991
				c1.18-1.321,1.861-3.004,2.484-4.663c4.258-11.348,6.815-23.332,7.56-35.43"/>
			<path style="fill:#CEDFF4;" d="M270,204.08c1.26,0.57,2.54,1.09,3.83,1.58c-0.2,1.64-0.4,3.29-0.58,4.93
				c-0.9-0.18-1.84-0.2-2.76-0.03C270.35,208.43,270.2,206.26,270,204.08z"/>
			<path style="fill:#CEDFF4;" d="M317.9,169.93c1.6,0.2,3.2,0.44,4.8,0.77c-2.92,13.59-3.55,27.45-7.86,40.79
				c-2.47,7.66-8.06,9.54-15.51,8.52c-6.86-0.93-13.39-3.2-20.02-5.06c-0.25-0.07-0.47-0.06-0.66-0.02
				c-0.88-2.06-2.55-3.47-4.48-4.11c0.22-1.59,0.46-3.18,0.69-4.77c6.33,2.33,12.96,3.94,19.54,5.54c1.66,0.4,3.34,0.8,5.06,0.85
				c4.67,0.13,9.3-2.68,11.34-6.89c0.8-1.65,1.22-3.46,1.61-5.26C314.6,190.28,316.98,180.14,317.9,169.93z"/>
			<path style="fill:#F68D8F;" d="M316.4,152.09c0.89-0.71,1.4-1.73,1.08-3.07c0.65,0.16,1.3,0.35,1.94,0.54
				c0.42,0.13,0.84,0.26,1.26,0.38c-0.32,1.16-0.82,2.31-1.59,3.18C317.99,154.36,317.28,152.83,316.4,152.09z"/>
			<path style="fill:#F68D8F;" d="M324.63,152.81c-0.93,0.97-2.05,0.85-3.18,1.06c0.66-1,1.11-2.23,1.41-3.37
				c0.98,0.21,1.97,0.34,2.97,0.29C325.57,151.54,325.17,152.23,324.63,152.81z"/>
			<path style="fill:#F68D8F;" d="M327.89,156.75c0.13,2.66-0.03,5-2.24,6.96c-1.58,1.39-3.61,2.35-4.81,4.11
				c-1.26-0.22-2.53-0.37-3.81-0.48c-2.38-2.85-4.7-5.77-6.93-8.74c-1.27-1.69-2.57-3.63-2.27-5.72c0.32-2.23,2.48-3.83,4.71-4.23
				c0.41-0.04,0.83-0.05,1.24-0.03c0.65,0.04,1.4,0.31,1.47,1.04c0.2,2.22-4.19,2-5.41,2.13c-0.71,0.07-1.02,0.98-0.52,1.38
				c0.05,0.16,0.17,0.3,0.36,0.37c1.39,0.53,2.57,1.35,3.62,2.39c0.97,0.96,1.41,2.27,2.34,3.22c0.39,0.4,1.27,0.14,1.2-0.49
				c-0.18-1.51-1.35-2.83-2.39-3.87c-0.55-0.54-1.17-0.98-1.83-1.34c0.26-0.03,0.53-0.09,0.79-0.14c0.04,0.05,0.09,0.09,0.15,0.13
				c0.28,0.13,0.56,0.28,0.81,0.45c0.28,0.21,0.67,0.28,1.02,0.33c0.76,1.22,2.35,1.9,3.75,1.52c1.37,0.28,2.73,0.54,4.1,0.75
				c-2.63,1.38-4.59,4.11-5.41,6.88c-0.16,0.53,0.64,0.74,0.82,0.23c1.13-3.4,3.54-5.09,6.41-6.8c0.67,0.11,1.36,0.17,1.96,0.02
				C327.31,156.82,327.6,156.8,327.89,156.75z"/>
			<path style="fill:#F68D8F;" d="M330.7,151.03c-0.2,1.17-0.74,2.39-1.72,3.1c-0.94,0.68-1.91,0.45-2.9,0.37
				c1.19-1.02,1.85-2.6,2.14-4.15c0.9-0.3,1.75-0.76,2.52-1.35C330.83,149.67,330.81,150.37,330.7,151.03z"/>
			<path style="fill:#CEDFF4;" d="M229.27,241.61c6.42-0.73,12.71-2.4,18.7-4.85c-0.11,0.72-0.21,1.45-0.31,2.18
				c-3.91,0.8-7.81,1.6-11.76,2.26c-0.37,0.07-0.29,0.7,0.09,0.67c3.83-0.33,7.69-0.82,11.51-1.52c-0.08,0.69-0.15,1.37-0.21,2.06
				c-4.58,0.36-9.17,0.5-13.76,0.6C231.96,243.04,230.12,242.92,229.27,241.61z"/>
			<path style="fill:#CEDFF4;" d="M278.39,230.19c-0.93,2.97-3.46,4.15-5.49,6.19c-0.52,0.53-0.14,1.45,0.61,1.46
				c0.9,0,1.74-0.23,2.5-0.61c0.05,0.99,0.16,1.98,0.18,2.99c-1.12,0.55-2.25,1.07-3.4,1.56c-2.43,1.03-4.92,1.96-7.44,2.75
				c0.13-1.63,0.06-3.23-0.45-4.8c-5.34,1.32-10.78,2.1-16.26,2.57c0.02-0.72,0.05-1.45,0.09-2.18c2.84-0.55,5.65-1.21,8.4-2.01
				c0.64-0.19,0.37-1.11-0.28-0.99c-2.69,0.49-5.37,1.04-8.05,1.59c0.05-0.79,0.11-1.58,0.19-2.37c3.61-1.54,7.11-3.36,10.45-5.42
				c1.42-0.88,2.84-1.82,3.94-3.08c0.93-1.08,1.62-2.42,1.73-3.83c1.55,2.25,4.09,3.69,7.4,3.06c2.66-0.51,4.63-2.09,5.76-4.18
				C279.13,225.27,279.18,227.64,278.39,230.19z"/>
			<path style="fill:#CEDFF4;" d="M235.47,174.66c0.06,0.73,0.09,1.47,0.15,2.2c-0.46,0.41-0.88,0.88-1.22,1.23
				c-0.58,0.61-1.03,1.29-1.39,2.02c-0.1-0.41-0.21-0.82-0.31-1.24c-0.15-0.62-1.18-0.5-1.13,0.16c0.36,5.01,1.46,9.93,2.88,14.77
				c-1.92-4.58-3.7-9.23-5.33-13.92c-0.02-0.05-0.03-0.09-0.05-0.14C230.73,177.17,232.88,175.86,235.47,174.66z"/>
			<path style="fill:#CEDFF4;" d="M259.08,180.01c-0.27,2.21-0.89,4.38-1.54,6.51c-0.5,1.63-1.02,3.25-1.56,4.86
				c0.82-4.25,1.36-8.56,1.15-12.77c-0.04-0.67-1.05-0.88-1.22-0.2c-0.87-0.93-1.99-1.79-3.15-2.34c0.09-0.76,0.14-1.53,0.18-2.3
				c0.01,0,0.02,0.01,0.03,0.01C255.49,175.65,257.49,177.71,259.08,180.01z"/>
		</g>
		<g>
			<g>
				<path style="fill:#6CD8D0;" d="M338.582,402.657c0,5.566-4.421,10.079-9.874,10.079H167.443c-5.452,0-9.873-4.513-9.873-10.079
					v-6.3c0-5.565,4.421-10.079,9.873-10.079h161.265c5.453,0,9.874,4.514,9.874,10.079V402.657z"/>
				<g>
					<path style="fill:#359942;" d="M156.753,296.684l17.555-7.453h46.665c5.567,0,10.079-4.513,10.079-10.079v-21.695
						c0-5.566-4.512-10.079-10.079-10.079h-86.864c-5.567,0-10.079,4.513-10.079,10.079v21.695c0,5.566,4.512,10.079,10.079,10.079
						h31.057L156.753,296.684z"/>
					<g>
						<path style="fill:#76D354;" d="M219.293,245.697h-86.864c-5.567,0-10.079,4.512-10.079,10.079v21.695
							c0,5.566,4.512,10.079,10.079,10.079h31.057l-6.732,9.133l15.875-9.133h46.665c5.567,0,10.079-4.513,10.079-10.079v-21.695
							C229.372,250.21,224.86,245.697,219.293,245.697z"/>
						<path style="fill:#FCF356;" d="M155.5,266.625c0,7.19-5.829,13.019-13.019,13.019c-7.19,0-13.019-5.828-13.019-13.019
							s5.829-13.02,13.019-13.02C149.671,253.605,155.5,259.435,155.5,266.625z"/>
						<polygon style="fill:#359942;" points="162.708,261.69 212.476,261.69 212.476,257.986 162.637,257.986 						"/>
						<polygon style="fill:#359942;" points="162.692,271.741 200.717,271.741 200.717,268.038 162.637,268.038 						"/>
					</g>
				</g>
				<g>
					<path style="fill:#359942;" d="M248.264,308.232H161.4c-5.567,0-10.079,4.513-10.079,10.079v21.695
						c0,5.566,4.512,10.079,10.079,10.079h23.139l-8.678,7.814l18.181-7.814h54.222c5.567,0,10.08-4.513,10.08-10.079v-21.695
						C258.344,312.745,253.831,308.232,248.264,308.232z"/>
					<g>
						<path style="fill:#76D354;" d="M246.584,306.553H159.72c-5.567,0-10.079,4.513-10.079,10.079v21.695
							c0,5.566,4.512,10.079,10.079,10.079h23.139l-6.999,9.493l16.501-9.493h54.222c5.567,0,10.08-4.513,10.08-10.079v-21.695
							C256.664,311.065,252.151,306.553,246.584,306.553z"/>
						<path style="fill:#F44040;" d="M182.791,327.48c0,7.19-5.829,13.018-13.019,13.018c-7.19,0-13.019-5.828-13.019-13.018
							c0-7.19,5.829-13.02,13.019-13.02C176.962,314.461,182.791,320.29,182.791,327.48z"/>
						<polygon style="fill:#359942;" points="189.999,322.545 239.767,322.545 239.767,318.842 189.928,318.842 						"/>
						<polygon style="fill:#359942;" points="189.983,332.597 228.008,332.597 228.008,328.894 189.928,328.894 						"/>
					</g>
				</g>
				<g>
					<path style="fill:#359942;" d="M351.927,260.397h-86.864c-5.566,0-10.079,4.512-10.079,10.079v21.694
						c0,5.566,4.513,10.079,10.079,10.079h54.568l20.806,10.059l-10.333-10.059h21.823c5.567,0,10.079-4.513,10.079-10.079v-21.694
						C362.006,264.909,357.494,260.397,351.927,260.397z"/>
					<g>
						<path style="fill:#76D354;" d="M353.606,258.718h-86.863c-5.567,0-10.079,4.512-10.079,10.079v21.694
							c0,5.566,4.512,10.079,10.079,10.079h54.568l19.125,11.738l-8.653-11.738h21.823c5.567,0,10.079-4.513,10.079-10.079v-21.694
							C363.685,263.229,359.174,258.718,353.606,258.718z"/>
						<path style="fill:#5F85AA;" d="M330.535,279.645c0,7.19,5.829,13.019,13.02,13.019s13.018-5.828,13.018-13.019
							c0-7.19-5.828-13.02-13.018-13.02S330.535,272.454,330.535,279.645z"/>
						<polygon style="fill:#359942;" points="323.398,271.006 273.56,271.006 273.56,274.709 323.327,274.709 						"/>
						<polygon style="fill:#359942;" points="323.398,281.058 285.318,281.058 285.318,284.761 323.344,284.761 						"/>
					</g>
				</g>
				<path style="fill:#FFFFFF;" d="M325.102,398.461c0,11.367-9.215,20.581-20.582,20.581c-11.367,0-20.581-9.214-20.581-20.581
					c0-11.367,9.214-20.582,20.581-20.582C315.888,377.879,325.102,387.094,325.102,398.461z"/>
				<path style="fill:#FFFFFF;" d="M212.913,397.975c0,11.367-9.215,20.581-20.582,20.581c-11.367,0-20.581-9.214-20.581-20.581
					c0-11.367,9.214-20.582,20.581-20.582C203.698,377.393,212.913,386.607,212.913,397.975z"/>
			</g>
			<path style="fill:#6792C6;" d="M185.988,394.674c0.773,0.493,1.797,0.514,2.606-0.032l3.339-2.245
				c1.091-0.733,1.381-2.212,0.646-3.304l-3.173-4.716c-0.733-1.09-2.212-1.38-3.302-0.647l-3.338,2.245
				c-0.147,0.1-0.277,0.212-0.394,0.336l-0.001-0.001c0,0-5.003,4.684,2.561,16.373l-0.005,0.004
				c0.075,0.112,0.148,0.219,0.222,0.328c0.074,0.11,0.146,0.219,0.221,0.331l0.006-0.006c7.976,11.413,14.201,8.543,14.201,8.543
				h-0.001c0.159-0.061,0.312-0.141,0.46-0.237l3.337-2.248c1.092-0.732,1.38-2.211,0.648-3.301l-3.175-4.719
				c-0.732-1.09-2.211-1.379-3.301-0.646l-3.339,2.246c-0.81,0.544-1.177,1.499-1.011,2.402c-1.395-1.021-3.589-3.917-4.302-4.882
				C188.261,399.476,186.407,396.351,185.988,394.674z"/>
			<g>
				<path style="fill:#6792C6;" d="M303.302,390.215h-9.038c-2.522,0-4.566,2.045-4.566,4.567v9.037
					c0,2.522,2.045,4.567,4.566,4.567h9.038c2.522,0,4.567-2.045,4.567-4.567v-9.037
					C307.869,392.26,305.824,390.215,303.302,390.215z"/>
				<path style="fill:#6792C6;" d="M316.689,394.021l-5.252,0.762c-1.466,0-2.654,1.188-2.654,2.653v3.73
					c0,1.466,1.188,2.653,2.654,2.653l5.252,0.762c1.466,0,2.654-1.188,2.654-2.653v-5.253
					C319.344,395.209,318.155,394.021,316.689,394.021z"/>
			</g>
		</g>
	</g>
	<g>
		<g>
			<path style="fill:#88D1D2;" d="M106.102,57.507H60.746c-5.566,0-10.079,4.513-10.079,10.079v20.097
				c0,5.567,4.513,10.079,10.079,10.079h31.666l14.95,8.992l-5.908-8.992h4.649c5.566,0,10.079-4.512,10.079-10.079V67.586
				C116.181,62.02,111.668,57.507,106.102,57.507z"/>
			<g>
				<path style="fill:#FFFFFF;" d="M109.146,68.059H57.701c-1.076,0-1.076,2.711,0,2.711h51.446
					C110.223,70.77,110.223,68.059,109.146,68.059z"/>
				<path style="fill:#FFFFFF;" d="M109.146,75.829H57.701c-1.076,0-1.076,2.711,0,2.711h51.446
					C110.223,78.54,110.223,75.829,109.146,75.829z"/>
				<path style="fill:#FFFFFF;" d="M109.146,83.634H57.701c-1.076,0-1.076,2.711,0,2.711h51.446
					C110.223,86.345,110.223,83.634,109.146,83.634z"/>
			</g>
		</g>
		<g>
			<path style="fill:#BDA6E2;" d="M117.844,205.297c0,5.567-2.833,10.079-8.399,10.079H86.206c-5.567,0-8.399-4.512-8.399-10.079
				v-18.083c0-5.566,2.833-10.079,8.399-10.079h23.238c5.566,0,8.399,4.513,8.399,10.079V205.297z"/>
			<path style="fill:#5F85AA;" d="M115.604,175.371c0,1.439-2.516,2.605-7.459,2.605H87.507c-4.944,0-7.459-1.166-7.459-2.605
				v-4.672c0-1.438,2.516-2.605,7.459-2.605h20.638c4.943,0,7.459,1.166,7.459,2.605V175.371z"/>
			<polygon style="fill:#F4BDE9;" points="77.915,207.096 107.204,207.096 107.204,185.812 77.874,185.812 			"/>
		</g>
		<g>
			<path style="fill:#EF4675;" d="M108.463,342.943c-0.656-6.875-5.814-13.172-13.126-13.303c-6.939-0.124-13.661,3.446-18.402,8.4
				c-4.741-4.954-11.463-8.524-18.402-8.4c-7.312,0.131-12.469,6.428-13.125,13.303c-0.745,7.809,4.563,15.661,9.168,21.425
				c5.635,7.054,12.865,13.113,21.548,15.859c0.173,0.201,0.431,0.312,0.706,0.331c0.035,0.003,0.07,0.006,0.106,0.006
				c0.036,0,0.07-0.003,0.105-0.006c0.275-0.02,0.533-0.13,0.706-0.331c8.684-2.746,15.914-8.806,21.549-15.859
				C103.9,358.604,109.208,350.752,108.463,342.943z"/>
			<path style="fill:#FFB6CD;" d="M110.418,353.595c-4.067-1.323-8.853-0.676-13.089-0.671c-3.821,0.004-8.31-0.627-12.059,0.449
				c-0.582-1.865-1.327-3.664-2.045-5.481c-0.322-0.815-1.563-0.979-1.819,0c-1.214,4.647-2.927,9.15-4.572,13.665
				c-1.924-5.512-3.253-11.216-5.397-16.654c-0.39-0.988-1.859-1.161-2.18,0c-0.812,2.939-2.083,5.927-2.285,8.991
				c-3.551-0.578-7.284-0.276-10.873-0.256c-4.209,0.024-8.655-0.297-12.762,0.745c-0.475,0.12-0.475,0.837,0,0.958
				c3.615,0.917,7.469,0.714,11.177,0.735c4.185,0.024,8.6,0.441,12.729-0.285c0.183-0.032,0.319-0.128,0.429-0.246
				c0.212-0.001,0.418-0.102,0.534-0.339c0.945-1.931,1.622-4.027,2.228-6.132c1.729,5.515,3.147,11.126,5.415,16.455
				c0.416,0.978,1.883,0.604,2.132-0.278c1.334-4.729,2.971-9.36,4.406-14.058c0.373,1.024,0.742,2.051,1.051,3.099
				c0.194,0.659,0.829,0.819,1.333,0.643c3.845,1.29,8.566,0.601,12.559,0.605c4.237,0.005,9.022,0.652,13.089-0.672
				C111.047,354.663,111.047,353.8,110.418,353.595z"/>
		</g>
		<g>
			<polygon style="fill:#CC0350;" points="387.903,155.858 404.26,155.858 404.26,143.972 387.88,143.972 			"/>
			<path style="fill:#FF4A71;" d="M413.636,164.259v40.317c0,5.561-2.83,7.559-8.398,7.559h-18.336
				c-5.569,0-8.399-1.999-8.399-7.559v-40.317c0-5.568,2.83-8.399,8.399-8.399h18.336
				C410.806,155.86,413.636,158.691,413.636,164.259z"/>
			<polygon style="fill:#F4BDE9;" points="413.636,164.814 413.636,201.46 384.692,201.46 384.65,164.814 			"/>
		</g>
		<g>
			
				<rect x="376.699" y="87.695" transform="matrix(0.6844 -0.7291 0.7291 0.6844 56.4938 306.7639)" style="fill:#8C8B8B;" width="11.823" height="0.854"/>
			<path style="fill:#71BFBF;" d="M389.525,86.506c-0.449,0.478-1.075,0.618-1.4,0.313l-4.559-4.281
				c-0.325-0.305-0.225-0.939,0.225-1.416l0,0c0.447-0.477,1.073-0.618,1.399-0.312l4.557,4.281
				C390.073,85.396,389.972,86.029,389.525,86.506L389.525,86.506z"/>
			
				<rect x="406.605" y="52.117" transform="matrix(0.6848 -0.7288 0.7288 0.6848 92.0704 319.4662)" style="fill:#A0F9F4;" width="17.403" height="2.384"/>
			
				<rect x="381.788" y="64.94" transform="matrix(0.6846 -0.7289 0.7289 0.6846 73.8318 312.947)" style="fill:#A0F9F4;" width="33.51" height="12.433"/>
			<g>
				
					<rect x="393.862" y="68.235" transform="matrix(0.6851 -0.7285 0.7285 0.6851 71.783 309.9315)" style="fill:#71BFBF;" width="1.001" height="7.411"/>
				
					<rect x="389.605" y="72.763" transform="matrix(0.6843 -0.7292 0.7292 0.6843 67.3958 308.608)" style="fill:#71BFBF;" width="1.01" height="7.411"/>
				
					<rect x="391.305" y="70.203" transform="matrix(0.6845 -0.729 0.729 0.6845 70.9283 308.4481)" style="fill:#71BFBF;" width="1.01" height="4.156"/>
				
					<rect x="389.869" y="71.733" transform="matrix(0.6847 -0.7288 0.7288 0.6847 69.2823 307.7767)" style="fill:#71BFBF;" width="1.01" height="4.157"/>
				
					<rect x="398.051" y="63.775" transform="matrix(0.6845 -0.729 0.729 0.6845 76.5468 311.8362)" style="fill:#71BFBF;" width="1" height="7.411"/>
				
					<rect x="395.495" y="65.746" transform="matrix(0.685 -0.7285 0.7285 0.685 75.3149 309.8505)" style="fill:#71BFBF;" width="1.001" height="4.157"/>
				
					<rect x="394.059" y="67.276" transform="matrix(0.6848 -0.7287 0.7287 0.6848 73.8096 309.368)" style="fill:#71BFBF;" width="1.001" height="4.156"/>
				
					<rect x="402.208" y="59.35" transform="matrix(0.6848 -0.7288 0.7288 0.6848 80.9955 313.3564)" style="fill:#71BFBF;" width="1" height="7.411"/>
				
					<rect x="399.652" y="61.322" transform="matrix(0.6843 -0.7292 0.7292 0.6843 80.0936 311.8019)" style="fill:#71BFBF;" width="1.001" height="4.156"/>
				
					<rect x="398.215" y="62.851" transform="matrix(0.6861 -0.7275 0.7275 0.6861 77.9219 310.4517)" style="fill:#71BFBF;" width="1.002" height="4.156"/>
			</g>
			<path style="fill:#71BFBF;" d="M427.824,53.128c-0.698,0.744-1.865,0.78-2.608,0.083l-10.432-9.797
				c-0.742-0.697-0.778-1.865-0.081-2.608l0,0c0.698-0.743,1.865-0.78,2.608-0.082l10.432,9.797
				C428.485,51.218,428.521,52.386,427.824,53.128L427.824,53.128z"/>
			<path style="fill:#71BFBF;" d="M416.227,66.11c-0.732,0.779-1.956,0.817-2.734,0.086l-10.934-10.269
				c-0.778-0.731-0.816-1.955-0.085-2.734l0,0c0.73-0.778,1.954-0.816,2.733-0.085l10.935,10.269
				C416.919,64.108,416.957,65.332,416.227,66.11L416.227,66.11z"/>
		</g>
		<g>
			<path style="fill:#77D354;" d="M396.158,296.684v-5.695c0-2.242,1.822-4.057,4.065-4.057h26.827c2.242,0,4.065,1.814,4.065,4.057
				v5.695h3.653v-8.702c0-2.704-2.2-4.905-4.913-4.905h-32.438c-2.713,0-4.914,2.201-4.914,4.905v8.702H396.158z"/>
			<path style="fill:#A5E563;" d="M457.02,303.234v38.806c0,5.568-4.511,10.079-10.079,10.079h-66.607
				c-5.568,0-10.079-4.511-10.079-10.079v-38.806c0-5.568,4.511-10.079,10.079-10.079h66.607
				C452.509,293.155,457.02,297.666,457.02,303.234z"/>
			<polygon style="fill:#349943;" points="427.761,315.22 420.171,315.22 420.171,307.631 407.102,307.631 407.107,315.22 
				399.514,315.22 399.514,328.288 407.116,328.283 407.121,335.879 420.171,335.879 420.171,328.276 427.761,328.271 			"/>
		</g>
		<g>
			<path style="fill:#359942;" d="M84.684,52.406v-4.2c0-0.696-0.564-1.26-1.26-1.26c-0.695,0-1.26,0.563-1.26,1.26v4.2
				c0,0.696,0.564,1.26,1.26,1.26C84.119,53.666,84.684,53.102,84.684,52.406"/>
			<path style="fill:#359942;" d="M84.684,47.787v-2.94h2.939c0.696,0,1.26-0.564,1.26-1.26c0-0.696-0.564-1.26-1.26-1.26h-5.459
				v5.459c0,0.696,0.564,1.26,1.26,1.26C84.119,49.046,84.684,48.482,84.684,47.787z"/>
			<path style="fill:#359942;" d="M150.541,44.847h8.989c0.695,0,1.26-0.564,1.26-1.26c0-0.696-0.564-1.26-1.26-1.26h-8.989
				c-0.695,0-1.26,0.564-1.26,1.26C149.282,44.283,149.846,44.847,150.541,44.847z M132.565,44.847h8.988
				c0.696,0,1.26-0.564,1.26-1.26c0-0.696-0.564-1.26-1.26-1.26h-8.988c-0.696,0-1.26,0.564-1.26,1.26
				C131.305,44.283,131.87,44.847,132.565,44.847z M114.588,44.847h8.989c0.695,0,1.26-0.564,1.26-1.26
				c0-0.696-0.564-1.26-1.26-1.26h-8.989c-0.695,0-1.26,0.564-1.26,1.26C113.328,44.283,113.893,44.847,114.588,44.847z
				 M96.611,44.847h8.988c0.696,0,1.26-0.564,1.26-1.26c0-0.696-0.564-1.26-1.26-1.26h-8.988c-0.695,0-1.26,0.564-1.26,1.26
				C95.352,44.283,95.916,44.847,96.611,44.847z"/>
			<path style="fill:#359942;" d="M168.519,44.847h2.939v2.94c0,0.696,0.564,1.26,1.26,1.26c0.695,0,1.26-0.564,1.26-1.26v-5.459
				h-5.46c-0.696,0-1.26,0.564-1.26,1.26C167.259,44.283,167.823,44.847,168.519,44.847z"/>
			<path style="fill:#359942;" d="M171.458,55.687v7.9c0,0.695,0.564,1.26,1.26,1.26c0.695,0,1.26-0.564,1.26-1.26v-7.9
				c0-0.696-0.564-1.26-1.26-1.26C172.023,54.427,171.458,54.991,171.458,55.687z"/>
			<path style="fill:#359942;" d="M171.458,71.487v4.2c0,0.696,0.564,1.26,1.26,1.26c0.695,0,1.26-0.564,1.26-1.26v-4.2
				c0-0.696-0.564-1.26-1.26-1.26C172.023,70.227,171.458,70.79,171.458,71.487"/>
			<path style="fill:#359942;" d="M69.705,192.355h-4.2c-0.696,0-1.26,0.564-1.26,1.26c0,0.696,0.564,1.26,1.26,1.26h4.2
				c0.695,0,1.26-0.564,1.26-1.26C70.965,192.919,70.4,192.355,69.705,192.355"/>
			<path style="fill:#359942;" d="M65.085,192.355h-2.94v-2.94c0-0.696-0.564-1.26-1.26-1.26c-0.696,0-1.26,0.564-1.26,1.26v5.46
				h5.459c0.695,0,1.26-0.564,1.26-1.26C66.345,192.919,65.781,192.355,65.085,192.355z"/>
			<path style="fill:#359942;" d="M62.146,162.057v-9.119c0-0.696-0.564-1.26-1.26-1.26c-0.696,0-1.26,0.564-1.26,1.26v9.119
				c0,0.696,0.564,1.26,1.26,1.26C61.581,163.317,62.146,162.753,62.146,162.057z M62.146,180.296v-9.119
				c0-0.696-0.564-1.26-1.26-1.26c-0.696,0-1.26,0.564-1.26,1.26v9.119c0,0.696,0.564,1.26,1.26,1.26
				C61.581,181.556,62.146,180.992,62.146,180.296z"/>
			<path style="fill:#359942;" d="M62.146,143.819v-2.94h2.94c0.695,0,1.26-0.564,1.26-1.26c0-0.696-0.564-1.26-1.26-1.26h-5.459
				v5.46c0,0.696,0.564,1.26,1.26,1.26C61.581,145.079,62.146,144.515,62.146,143.819z"/>
			<path style="fill:#359942;" d="M110.37,140.879h9.057c0.696,0,1.26-0.564,1.26-1.26c0-0.696-0.564-1.26-1.26-1.26h-9.057
				c-0.695,0-1.26,0.564-1.26,1.26C109.11,140.315,109.675,140.879,110.37,140.879z M92.256,140.879h9.057
				c0.696,0,1.26-0.564,1.26-1.26c0-0.696-0.564-1.26-1.26-1.26h-9.057c-0.695,0-1.26,0.564-1.26,1.26
				C90.996,140.315,91.561,140.879,92.256,140.879z M74.143,140.879H83.2c0.695,0,1.26-0.564,1.26-1.26
				c0-0.696-0.565-1.26-1.26-1.26h-9.057c-0.696,0-1.26,0.564-1.26,1.26C72.883,140.315,73.447,140.879,74.143,140.879z"/>
			<path style="fill:#359942;" d="M128.484,140.879h4.199c0.696,0,1.26-0.564,1.26-1.26c0-0.696-0.564-1.26-1.26-1.26h-4.199
				c-0.696,0-1.26,0.564-1.26,1.26C127.224,140.315,127.788,140.879,128.484,140.879"/>
			<path style="fill:#359942;" d="M422.588,180.915h4.199c0.695,0,1.26-0.564,1.26-1.26c0-0.696-0.564-1.26-1.26-1.26h-4.199
				c-0.696,0-1.261,0.564-1.261,1.26C421.327,180.352,421.892,180.915,422.588,180.915"/>
			<path style="fill:#359942;" d="M427.207,180.915h2.939v2.939c0,0.696,0.564,1.26,1.26,1.26c0.696,0,1.261-0.564,1.261-1.26v-5.46
				h-5.46c-0.695,0-1.26,0.564-1.26,1.26C425.947,180.352,426.512,180.915,427.207,180.915z"/>
			<path style="fill:#359942;" d="M430.146,211.213v9.12c0,0.696,0.564,1.26,1.26,1.26c0.696,0,1.261-0.564,1.261-1.26v-9.12
				c0-0.695-0.565-1.26-1.261-1.26C430.711,209.953,430.146,210.518,430.146,211.213z M430.146,192.975v9.12
				c0,0.695,0.564,1.26,1.26,1.26c0.696,0,1.261-0.564,1.261-1.26v-9.12c0-0.696-0.565-1.26-1.261-1.26
				C430.711,191.715,430.146,192.279,430.146,192.975z"/>
			<path style="fill:#359942;" d="M430.146,229.452v2.94h-2.939c-0.695,0-1.26,0.564-1.26,1.26s0.564,1.26,1.26,1.26h5.46v-5.459
				c0-0.696-0.565-1.26-1.261-1.26C430.711,228.192,430.146,228.756,430.146,229.452z"/>
			<path style="fill:#359942;" d="M386.723,232.392h-8.097c-0.696,0-1.26,0.564-1.26,1.26s0.564,1.26,1.26,1.26h8.097
				c0.695,0,1.26-0.564,1.26-1.26S387.418,232.392,386.723,232.392z M402.916,232.392h-8.097c-0.696,0-1.26,0.564-1.26,1.26
				s0.563,1.26,1.26,1.26h8.097c0.696,0,1.26-0.564,1.26-1.26S403.612,232.392,402.916,232.392z M419.11,232.392h-8.097
				c-0.696,0-1.26,0.564-1.26,1.26s0.564,1.26,1.26,1.26h8.097c0.695,0,1.26-0.564,1.26-1.26S419.806,232.392,419.11,232.392z"/>
			<path style="fill:#359942;" d="M370.528,232.392h-4.2c-0.695,0-1.26,0.564-1.26,1.26s0.564,1.26,1.26,1.26h4.2
				c0.695,0,1.26-0.564,1.26-1.26S371.224,232.392,370.528,232.392"/>
			<path style="fill:#76D354;" d="M79.067,327.48v-4.2c0-0.695-0.564-1.26-1.26-1.26c-0.695,0-1.26,0.564-1.26,1.26v4.2
				c0,0.695,0.564,1.26,1.26,1.26C78.503,328.74,79.067,328.176,79.067,327.48"/>
			<path style="fill:#359942;" d="M79.067,278.16v-9.024c0-0.696-0.564-1.26-1.26-1.26c-0.695,0-1.26,0.564-1.26,1.26v9.024
				c0,0.695,0.564,1.26,1.26,1.26C78.503,279.42,79.067,278.855,79.067,278.16z M79.067,296.208v-9.023
				c0-0.697-0.564-1.261-1.26-1.261c-0.695,0-1.26,0.564-1.26,1.261v9.023c0,0.696,0.564,1.26,1.26,1.26
				C78.503,297.468,79.067,296.904,79.067,296.208z M79.067,314.256v-9.023c0-0.696-0.564-1.261-1.26-1.261
				c-0.695,0-1.26,0.564-1.26,1.261v9.023c0,0.696,0.564,1.261,1.26,1.261C78.503,315.517,79.067,314.952,79.067,314.256z"/>
			<path style="fill:#359942;" d="M79.067,260.112v-2.94h2.939c0.696,0,1.26-0.565,1.26-1.261c0-0.695-0.564-1.26-1.26-1.26h-5.459
				v5.461c0,0.695,0.564,1.26,1.26,1.26C78.503,261.372,79.067,260.808,79.067,260.112z"/>
			<path style="fill:#359942;" d="M91.195,257.172h9.188c0.696,0,1.26-0.565,1.26-1.261c0-0.695-0.563-1.26-1.26-1.26h-9.188
				c-0.695,0-1.26,0.564-1.26,1.26C89.936,256.607,90.5,257.172,91.195,257.172z"/>
			<path style="fill:#359942;" d="M109.573,257.172h4.2c0.696,0,1.26-0.565,1.26-1.261c0-0.695-0.564-1.26-1.26-1.26h-4.2
				c-0.695,0-1.26,0.564-1.26,1.26C108.313,256.607,108.877,257.172,109.573,257.172"/>
			<path style="fill:#359942;" d="M366.195,124.279l4.2-0.042c0.696-0.007,1.254-0.577,1.247-1.272
				c-0.007-0.696-0.576-1.254-1.271-1.247l-4.2,0.042c-0.696,0.007-1.254,0.577-1.247,1.273
				C364.93,123.728,365.5,124.286,366.195,124.279"/>
			<path style="fill:#359942;" d="M380.881,124.133l10.484-0.104c0.696-0.007,1.255-0.577,1.248-1.273
				c-0.008-0.696-0.576-1.254-1.273-1.247l-10.484,0.104c-0.696,0.007-1.254,0.577-1.247,1.273
				C379.615,123.581,380.185,124.14,380.881,124.133z"/>
			<path style="fill:#359942;" d="M401.85,123.923l5.453-0.054l-0.024-5.453c-0.003-0.695-0.57-1.257-1.266-1.254
				c-0.695,0.003-1.258,0.569-1.254,1.266l0.013,2.947l-2.946,0.029c-0.696,0.007-1.254,0.577-1.247,1.272
				C400.584,123.372,401.154,123.93,401.85,123.923z"/>
			<path style="fill:#359942;" d="M407.231,107.951l-0.047-10.464c-0.003-0.696-0.569-1.257-1.266-1.254
				c-0.696,0.003-1.257,0.57-1.254,1.266l0.047,10.465c0.003,0.695,0.57,1.257,1.266,1.254
				C406.673,109.214,407.235,108.647,407.231,107.951z"/>
			<path style="fill:#359942;" d="M407.138,87.022l-0.02-4.2c-0.003-0.695-0.569-1.257-1.266-1.254
				c-0.695,0.003-1.257,0.569-1.254,1.266l0.019,4.2c0.004,0.695,0.57,1.257,1.266,1.254
				C406.579,88.285,407.141,87.718,407.138,87.022"/>
			<path style="fill:#359942;" d="M414.512,278.615l-0.098-4.199c-0.017-0.695-0.594-1.246-1.29-1.23
				c-0.695,0.017-1.246,0.594-1.23,1.29l0.098,4.198c0.017,0.696,0.594,1.246,1.29,1.23
				C413.977,279.888,414.527,279.31,414.512,278.615"/>
			<path style="fill:#359942;" d="M414.211,265.77l-0.127-5.435l-5.436,0.025c-0.695,0.003-1.258,0.569-1.254,1.266
				c0.003,0.695,0.569,1.257,1.266,1.254l2.962-0.014l0.069,2.963c0.017,0.695,0.594,1.246,1.289,1.23
				C413.677,267.042,414.227,266.465,414.211,265.77z"/>
			<path style="fill:#359942;" d="M398.184,260.405l-10.465,0.047c-0.695,0.004-1.257,0.57-1.254,1.266
				c0.003,0.696,0.57,1.258,1.266,1.255l10.465-0.047c0.695-0.004,1.257-0.57,1.254-1.266
				C399.446,260.964,398.879,260.402,398.184,260.405z"/>
			<path style="fill:#359942;" d="M377.255,260.5l-4.199,0.019c-0.696,0.004-1.258,0.57-1.255,1.266
				c0.004,0.696,0.57,1.258,1.266,1.255l4.2-0.02c0.695-0.003,1.258-0.57,1.254-1.266C378.518,261.059,377.95,260.497,377.255,260.5
				"/>
		</g>
	</g>
</g>
</svg>
