<svg width="3194" height="2655" viewBox="0 0 3194 2655" fill="none" xmlns="http://www.w3.org/2000/svg">
<path d="M1357.07 2091.52C1357.07 2313.94 1201.89 2506.26 976.536 2597.9C886.579 2634.47 785.447 2655 678.541 2655C303.8 2655 0.0078125 2402.72 0.0078125 2091.52C0.0078125 1780.32 303.8 1528.04 678.541 1528.04C1053.28 1528.04 1357.07 1780.31 1357.07 2091.52Z" fill="#EBB700"/>
<mask id="mask0_473_2" style="mask-type:luminance" maskUnits="userSpaceOnUse" x="0" y="1220" width="2172" height="1435">
<path d="M2148.06 2059.44C2148.06 2256.75 2429.53 2740.63 1050.07 2563.1C943.338 2621.2 815.689 2654.99 678.533 2654.99C303.792 2654.99 0 2402.71 0 2091.51C0 1780.31 303.792 1220.19 678.533 1220.19C1053.27 1220.19 2148.06 1748.24 2148.06 2059.44Z" fill="white"/>
</mask>
<g mask="url(#mask0_473_2)">
<path d="M969.568 2270.49C969.568 2270.49 993.557 2323.83 1015.02 2342.76C1015.02 2342.76 1176.51 2396.9 1303.95 2444.55L1292.83 2529.78C1292.83 2529.78 935.234 2489.98 879.686 2477.74C824.146 2465.5 776.617 2292.02 776.617 2292.02L969.568 2270.49Z" fill="#EA9686"/>
<path d="M1279.03 2415.98C1279.03 2415.98 1282.17 2409.55 1287.7 2408.78C1293.24 2408.02 1398.68 2386.62 1408.07 2387.59C1417.46 2388.56 1450.27 2407.87 1455.44 2412.84C1460.6 2417.81 1448.88 2432.54 1438.02 2430.82C1427.17 2429.11 1405.77 2424.32 1405.77 2424.32C1405.77 2424.32 1407.15 2466.11 1394.25 2481.03H1292.83L1279.03 2415.98Z" fill="#EA9686"/>
<path d="M1851.41 2511.43H1168.89V2534.46H1851.41V2511.43Z" fill="#EBB700"/>
<path d="M1179.92 2511.43H810.68V2534.46H1173.92L1179.92 2511.43Z" fill="#EFC900"/>
<path d="M1287.14 2100.79L1152.2 2511.43H1851.4L1980.91 2117.34L1963.94 2100.79H1287.14Z" fill="#A09426"/>
<path d="M1287.14 2100.79L1152.2 2511.43H1179.92L1309.46 2117.25L1287.14 2100.79Z" fill="#EFC900"/>
<path d="M1980.9 2117.34H1309.45L1287.13 2100.79H1963.93L1980.9 2117.34Z" fill="#EBB700"/>
<path d="M1609.94 2350.54C1635.97 2350.54 1657.08 2339.37 1657.08 2325.58C1657.08 2311.79 1635.97 2300.61 1609.94 2300.61C1583.9 2300.61 1562.8 2311.79 1562.8 2325.58C1562.8 2339.37 1583.9 2350.54 1609.94 2350.54Z" fill="#EFC900"/>
<path d="M807.485 1838.41H703.451C691.961 1838.41 682.648 1830.67 682.648 1821.13V1696.15C682.648 1686.61 691.961 1678.87 703.451 1678.87H807.485C818.974 1678.87 828.287 1686.61 828.287 1696.15V1821.13C828.295 1830.67 818.982 1838.41 807.485 1838.41Z" fill="#0F2B47"/>
<path d="M789.618 1838.41H685.584C674.094 1838.41 664.781 1830.67 664.781 1821.13V1696.15C664.781 1686.61 674.094 1678.87 685.584 1678.87H789.618C801.107 1678.87 810.42 1686.61 810.42 1696.15V1821.13C810.427 1830.67 801.107 1838.41 789.618 1838.41Z" fill="#0C426F"/>
<path d="M762.276 1813.83H689.098C681.475 1813.83 675.297 1808.7 675.297 1802.37V1714.91C675.297 1708.58 681.475 1703.45 689.098 1703.45H762.276C769.898 1703.45 776.077 1708.58 776.077 1714.91V1802.37C776.077 1808.7 769.898 1813.83 762.276 1813.83Z" fill="#EFBA00"/>
<path d="M721.314 1992.25C721.314 1992.25 626.181 2021.04 677.338 2138.31C725.75 2249.28 762.56 2354.84 762.56 2354.84L994.759 2260.23C994.759 2260.23 835.491 1954.18 721.314 1992.25Z" fill="#D3C866"/>
<path d="M886.712 2655C829.204 2151.6 732.089 1990.43 732.089 1990.43L495.881 1984.3L311.839 1994.33C311.839 1994.33 335.536 2382.96 291.68 2654.99H886.712V2655Z" fill="#346370"/>
<path d="M766.769 2534.46C766.769 2534.46 719.547 2481.98 705.17 2474.37C690.786 2466.77 588.809 2451.58 540.434 2445.06C492.06 2438.54 324.714 2434.2 324.714 2434.2L313.172 2440.1C311.175 2477.22 308.475 2514.47 304.914 2550.88L766.769 2534.46Z" fill="#3995AA"/>
<path d="M515.686 1889.76L508.475 1994.76C506.067 2029.84 544.231 2057.35 585.716 2050.43C615.337 2045.5 636.887 2024.18 637.605 1999.1L640.657 1893.24L515.686 1889.76Z" fill="#EA9686"/>
<path d="M509.805 1975.34C613.27 1983.7 638.86 1955.5 638.86 1955.5L628.612 1929.87L593.081 1917.83H553.81C553.81 1917.83 534.048 1923.34 512.849 1930.98L509.805 1975.34Z" fill="#E28174"/>
<path d="M980.186 2534.46H800.273V2464.23H914.166C950.625 2464.23 980.186 2488.78 980.186 2519.06V2534.46Z" fill="white"/>
<path d="M767.946 1541.44C767.946 1541.44 847.199 1618.67 788.973 1681.12C709.683 1766.17 658.773 1733.51 660.389 1708.32C662.005 1683.13 661.197 1642.17 671.714 1624.03C682.231 1605.9 709.721 1556.83 709.721 1556.83L767.946 1541.44Z" fill="#133B56"/>
<path d="M761.512 1581.62C761.512 1581.62 823.709 1849.1 717.633 1922.35C611.557 1995.6 460.173 1958.72 360.545 1825.79L345.031 1702.17L383.39 1694.2L403.092 1581.62H761.512Z" fill="#F5B8A5"/>
<path d="M768.947 1620.71L740.215 1581.62H403.084L383.382 1694.2L345.023 1702.17L360.537 1825.79C372.708 1842.03 385.663 1856.82 399.202 1870.16C413.684 1867.35 427.604 1861.57 437.396 1850.67C468.566 1815.99 446.125 1685.54 446.125 1685.54C474.176 1673.11 481.035 1644.12 481.035 1644.12C693.547 1683.97 768.909 1620.74 768.947 1620.71Z" fill="#EA9686"/>
<path d="M304.703 1719.22C304.703 1719.22 231.562 1503.49 357.723 1495.43C357.723 1495.43 408.805 1386.42 613.08 1421.89C796.247 1455.14 840.5 1397.72 840.5 1397.72C840.5 1397.72 873.136 1450.1 794.661 1485.35C794.661 1485.35 838.473 1481.32 855.572 1470.25C855.572 1470.25 874.692 1588.37 757.433 1624.71C642.56 1660.3 454.98 1601.67 454.98 1601.67C454.98 1601.67 476.814 1693.21 367.641 1712.68L304.703 1719.22Z" fill="#0C426F"/>
<path d="M855.569 1470.25C838.469 1481.33 794.658 1485.35 794.658 1485.35C873.132 1450.1 840.496 1397.71 840.496 1397.71C849.944 1472.77 665.999 1518.33 665.999 1518.33C767.782 1532.31 825.439 1505.91 825.439 1505.91C825.439 1505.91 818.894 1574.24 700.475 1593.65C582.064 1613.06 426.185 1555.6 426.185 1555.6C426.185 1555.6 422.909 1648.4 376.158 1579.29C329.407 1510.18 405.286 1454.38 405.286 1454.38L396.197 1453.65C367.645 1474.28 357.712 1495.44 357.712 1495.44C231.559 1503.49 304.692 1719.22 304.692 1719.22L367.638 1712.7C476.811 1693.22 454.976 1601.68 454.976 1601.68C454.976 1601.68 642.549 1660.32 757.429 1624.72C874.688 1588.37 855.569 1470.25 855.569 1470.25Z" fill="#0D3854"/>
<path d="M311.847 1994.33C311.847 1994.33 210.656 1997.11 215.346 2121.77C219.781 2239.75 215.226 2349.58 215.226 2349.58L471.347 2319.65C471.347 2319.65 434.612 1987.64 311.847 1994.33Z" fill="#D3C866"/>
<path d="M706.911 1689.36C718.572 1686.98 736.337 1686.75 755.786 1698.68C760.192 1701.38 761.127 1706.54 757.873 1710.2C754.604 1713.86 748.403 1714.64 743.997 1711.94C721.759 1698.29 704.061 1707.76 703.866 1707.85C699.326 1710.38 693.155 1709.33 690.118 1705.54C687.088 1701.76 688.33 1696.64 692.893 1694.13C693.401 1693.84 698.608 1691.05 706.911 1689.36Z" fill="#0C426F"/>
<path d="M717.499 1770.13C733.532 1770.13 746.53 1759.33 746.53 1746.02C746.53 1732.71 733.532 1721.91 717.499 1721.91C701.466 1721.91 688.469 1732.71 688.469 1746.02C688.469 1759.33 701.466 1770.13 717.499 1770.13Z" fill="#0C426F"/>
<path d="M555.855 1689.36C544.194 1686.98 526.429 1686.75 506.98 1698.68C502.574 1701.38 501.639 1706.54 504.893 1710.2C508.162 1713.86 514.363 1714.64 518.769 1711.94C541.007 1698.29 558.705 1707.76 558.9 1707.85C563.44 1710.38 569.611 1709.33 572.648 1705.54C575.678 1701.76 574.436 1696.64 569.873 1694.13C569.372 1693.84 564.166 1691.05 555.855 1689.36Z" fill="#0C426F"/>
<path d="M545.265 1770.13C561.298 1770.13 574.295 1759.33 574.295 1746.02C574.295 1732.71 561.298 1721.91 545.265 1721.91C529.232 1721.91 516.234 1732.71 516.234 1746.02C516.234 1759.33 529.232 1770.13 545.265 1770.13Z" fill="#0C426F"/>
<path d="M649.606 1719.4C649.606 1719.4 653.466 1756.55 670.73 1782.75C693.163 1816.79 646.704 1833.12 623.919 1812.53C601.135 1791.93 632.716 1802.05 644.677 1792.86C656.637 1783.68 624.585 1715.14 649.606 1719.4Z" fill="#EA9686"/>
<path d="M520.93 1834.61C520.93 1834.61 553.768 1905.29 673.054 1872.45C673.054 1872.45 579.238 1870.78 520.93 1834.61Z" fill="#EA9686"/>
<path d="M434.791 2323.92C434.791 2323.92 440.521 2347.73 441.86 2357.74C441.86 2357.74 623.912 2407.66 766.769 2464.23V2534.45C766.769 2534.45 405.507 2522.46 349.966 2510.22C294.426 2497.98 250.562 2345.45 250.562 2345.45L434.791 2323.92Z" fill="#F5B8A5"/>
<path d="M250.562 2345.45C250.562 2345.45 255.08 2361.12 263.017 2382.79L434.791 2323.92L250.562 2345.45Z" fill="#EA9686"/>
<path d="M752.961 2469.41C752.961 2469.41 756.095 2462.97 761.63 2462.21C767.166 2461.45 872.614 2440.05 882.001 2441.02C891.389 2441.98 924.197 2461.3 929.366 2466.27C934.534 2471.25 922.805 2485.97 911.952 2484.26C901.098 2482.54 879.697 2477.75 879.697 2477.75C879.697 2477.75 881.081 2519.55 868.178 2534.47H766.762L752.961 2469.41Z" fill="#F5B8A5"/>
<path d="M405.287 1454.37C430.764 1437.76 467.364 1421.69 516.808 1417H456.675C378.38 1417 314.672 1469.9 314.672 1534.92V1736.08H346.837V1534.92C346.844 1500.04 370.564 1469.71 405.287 1454.37Z" fill="#EFBA00"/>
<path d="M412.555 1838.41H308.521C297.032 1838.41 287.719 1830.67 287.719 1821.13V1696.15C287.719 1686.61 297.032 1678.87 308.521 1678.87H412.555C424.045 1678.87 433.358 1686.61 433.358 1696.15V1821.13C433.358 1830.67 424.045 1838.41 412.555 1838.41Z" fill="#0C426F"/>
<path d="M394.688 1838.41H290.654C279.164 1838.41 269.852 1830.67 269.852 1821.13V1696.15C269.852 1686.61 279.164 1678.87 290.654 1678.87H394.688C406.178 1678.87 415.49 1686.61 415.49 1696.15V1821.13C415.49 1830.67 406.178 1838.41 394.688 1838.41Z" fill="#0F2B47"/>
<path d="M367.347 1813.83H294.168C286.546 1813.83 280.367 1808.7 280.367 1802.37V1714.91C280.367 1708.58 286.546 1703.45 294.168 1703.45H367.347C374.969 1703.45 381.147 1708.58 381.147 1714.91V1802.37C381.14 1808.7 374.969 1813.83 367.347 1813.83Z" fill="#EFBA00"/>
<path d="M538.62 1907.98H357.697C339.887 1907.98 325.391 1895.95 325.391 1881.16V1821.62H336.11V1881.16C336.11 1891.03 345.789 1899.08 357.69 1899.08H538.62V1907.98Z" fill="#0F2B47"/>
<path d="M549.872 1908.01H506.218C503.697 1908.01 501.625 1906.3 501.625 1904.2V1893.09C501.625 1890.99 503.69 1889.27 506.218 1889.27H549.872C552.393 1889.27 554.465 1890.99 554.465 1893.09V1904.2C554.457 1906.3 552.393 1908.01 549.872 1908.01Z" fill="#0F2B47"/>
<path d="M348.703 1838.4H313.188V1860.02H348.703V1838.4Z" fill="#EFBA00"/>
</g>
<path d="M1836.77 871.319C1836.77 1093.74 1991.96 1286.07 2217.31 1377.7C2307.27 1414.27 2408.4 1434.8 2515.31 1434.8C2890.05 1434.8 3193.84 1182.52 3193.84 871.319C3193.84 560.118 2890.05 307.83 2515.31 307.83C2140.57 307.83 1836.77 560.112 1836.77 871.319Z" fill="#EBB700"/>
<mask id="mask1_473_2" style="mask-type:luminance" maskUnits="userSpaceOnUse" x="1022" y="0" width="2172" height="1435">
<path d="M1045.77 839.239C1045.77 1036.55 764.302 1520.43 2143.76 1342.9C2250.49 1401 2378.14 1434.79 2515.3 1434.79C2890.04 1434.79 3193.83 1182.51 3193.83 871.311C3193.83 560.11 2890.04 0 2515.3 0C2140.55 0 1045.77 528.038 1045.77 839.239Z" fill="white"/>
</mask>
<g mask="url(#mask1_473_2)">
<path d="M2836.13 275.226C2836.13 275.226 2976.76 268.766 2945.09 508.263C2913.42 747.761 2981.37 770.559 3020.59 744.5C3059.82 718.441 3067.66 849.816 2876.78 861.761C2685.89 873.706 2641.45 723.87 2641.45 723.87L2836.13 275.226Z" fill="#0C426F"/>
<path d="M2876.77 861.752C3067.65 849.806 3059.81 718.432 3020.58 744.491C2986.92 766.86 2932.14 753.088 2937.32 597.307C2937.3 597.363 2937.27 597.413 2937.26 597.469C2920.99 658.084 2858.15 649.443 2806.73 515.888C2787.14 465.038 2787.36 417.629 2790.62 380.066L2641.44 723.867C2641.45 723.867 2685.89 873.697 2876.77 861.752Z" fill="#0D3854"/>
<path d="M2453.48 275.226C2453.48 275.226 2325.96 268.766 2357.63 508.263C2389.3 747.761 2308.24 770.559 2269.02 744.5C2229.8 718.441 2221.95 849.816 2412.83 861.761C2603.72 873.706 2648.16 723.87 2648.16 723.87L2453.48 275.226Z" fill="#0D3854"/>
<path d="M2254.42 624.926C2254.42 624.926 2285.17 565 2301.11 551.023C2317.05 537.053 2402.69 590.289 2399.32 602.284C2395.95 614.279 2306.75 684.858 2306.75 684.858L2254.42 624.926Z" fill="#FFC1A9"/>
<path d="M2478.89 494.288L2372.88 442.648L2275.18 580.963L2381.19 632.603L2478.89 494.288Z" fill="#EFBA00"/>
<path d="M2345.26 457.933C2345.26 457.933 2384.91 470.723 2369.83 500.633C2354.73 530.543 2314.38 570.566 2304.16 569.914C2293.92 569.255 2268.54 558.18 2276.81 540.327C2285.08 522.462 2323.76 451.063 2345.26 457.933Z" fill="#FFC1A9"/>
<path d="M1914.8 1195.78C1914.8 1195.78 1911.67 1189.34 1906.13 1188.58C1900.61 1187.81 1795.15 1166.42 1785.76 1167.38C1776.38 1168.34 1743.57 1187.66 1738.4 1192.64C1733.23 1197.61 1744.96 1212.34 1755.81 1210.62C1766.67 1208.91 1788.07 1204.12 1788.07 1204.12C1788.07 1204.12 1786.68 1245.91 1799.59 1260.83H1901L1914.8 1195.78Z" fill="#EA9686"/>
<path d="M2472.52 772.048C2472.52 772.048 2567.65 800.833 2516.49 918.101C2468.08 1029.08 2431.27 1134.63 2431.27 1134.63L2224.27 1050.29C2224.27 1050.29 2358.34 733.975 2472.52 772.048Z" fill="#DB3752"/>
<path d="M2270.95 955.442C2270.95 955.442 2297.46 828.813 2382.42 661.392L2234.18 602.273C2234.18 602.273 2072.06 919.326 2073.37 1099.22C2074.61 1270.27 2283.21 1196.17 2464.29 1008.83C2576.54 892.677 2270.95 955.442 2270.95 955.442Z" fill="#DB3752"/>
<path d="M2437.02 1035.88C2417.92 1025.28 2380.38 1007.1 2380.38 1007.1C2380.38 1007.1 2315.54 1121.3 2225.67 1180.4C2288.79 1156.71 2364.13 1105.79 2437.02 1035.88Z" fill="#CE2949"/>
<path d="M2307.13 1434.8C2364.64 931.407 2461.76 770.235 2461.76 770.235L2697.96 764.104L2882.01 774.13C2882.01 774.13 2858.31 1162.77 2902.16 1434.8H2307.13Z" fill="#EA445A"/>
<path d="M2729.29 765.806L2697.96 764.098L2520.65 768.701C2520.65 768.701 2513.23 816.849 2565.5 871.314C2619.11 927.165 2718.37 834.142 2729.29 765.806Z" fill="#EA9686"/>
<path d="M2836.68 994.819L2879.2 1190.11C2876.03 1118.49 2875.28 1048.33 2875.7 986.613L2836.68 994.819Z" fill="#CE2949"/>
<path d="M2678.17 669.555L2685.38 774.554C2687.79 809.638 2649.62 837.144 2608.14 830.23C2578.52 825.292 2556.97 803.973 2556.25 778.896L2553.2 673.033L2678.17 669.555Z" fill="#EA9686"/>
<path d="M2554.98 735.299C2554.98 735.299 2613.9 763.768 2683.96 753.959L2681.01 710.998C2660.99 699.14 2637.66 689.561 2634.07 689.561C2625.66 689.561 2606.02 682.573 2587.94 692.667C2569.86 702.761 2556.31 707.681 2554.98 710.787C2554.65 711.564 2554.49 713.477 2554.42 715.918L2554.98 735.299Z" fill="#E28174"/>
<path d="M2432.33 361.422C2432.33 361.422 2370.13 628.898 2476.21 702.148C2582.29 775.398 2733.67 738.518 2833.3 605.591C2833.3 605.591 2901.26 491.951 2848.81 481.963C2796.36 471.98 2810.45 473.999 2810.45 473.999L2790.75 361.422H2432.33Z" fill="#F5B8A5"/>
<path d="M2424.91 400.362C2424.93 400.375 2503.18 461.791 2696.4 420.383C2696.4 420.383 2705.88 558.025 2792.11 652.402C2806.56 638.419 2820.38 622.827 2833.3 605.583C2833.3 605.583 2901.27 491.944 2848.82 481.955C2796.36 471.973 2810.46 473.991 2810.46 473.991L2790.75 361.414H2483.04C2478.92 362.464 2475.31 363.905 2472.62 366.023C2460.15 375.863 2424.93 400.35 2424.91 400.362Z" fill="#EA9686"/>
<path d="M2889.14 499.006C2889.14 499.006 2962.28 283.274 2836.12 275.217C2836.12 275.217 2785.04 166.206 2580.77 201.682C2397.6 234.921 2319.16 368.159 2436.41 404.499C2551.29 440.092 2738.87 381.459 2738.87 381.459C2738.87 381.459 2717.03 472.997 2826.21 492.471L2889.14 499.006Z" fill="#0C426F"/>
<path d="M2817.75 778.947C2817.75 778.947 2907.21 739.577 2977.79 849.669C3044.58 953.854 3083.07 1063.88 3083.07 1063.88L2908.44 1115.67C2908.44 1115.67 2707.23 823.84 2817.75 778.947Z" fill="#DB3752"/>
<path d="M2486.93 469.147C2475.26 466.768 2457.5 466.538 2438.05 478.471C2433.64 481.173 2432.71 486.329 2435.96 489.994C2439.23 493.653 2445.43 494.429 2449.84 491.727C2472.08 478.08 2489.78 487.547 2489.97 487.64C2494.51 490.168 2500.68 489.125 2503.72 485.335C2506.75 481.546 2505.51 476.434 2500.94 473.918C2500.44 473.632 2495.24 470.843 2486.93 469.147Z" fill="#0C426F"/>
<path d="M2637.99 469.147C2649.65 466.768 2667.42 466.538 2686.86 478.471C2691.27 481.173 2692.2 486.329 2688.95 489.994C2685.68 493.653 2679.48 494.429 2675.08 491.727C2652.84 478.08 2635.14 487.547 2634.94 487.64C2630.4 490.168 2624.23 489.125 2621.2 485.335C2618.17 481.546 2619.41 476.434 2623.97 473.918C2624.47 473.632 2629.69 470.843 2637.99 469.147Z" fill="#0C426F"/>
<path d="M2544.24 499.199C2544.24 499.199 2540.38 536.346 2523.11 562.541C2500.68 596.588 2547.14 612.913 2569.92 592.321C2592.71 571.728 2561.13 581.841 2549.16 572.654C2537.2 563.479 2569.26 494.931 2544.24 499.199Z" fill="#EA9686"/>
<path d="M2672.91 614.406C2672.91 614.406 2642.09 739.507 2520.78 652.249C2520.78 652.249 2593.71 622.246 2672.91 614.406Z" fill="#F6F7F1"/>
<path d="M2873.66 1061C2873.66 1061 2943 1218.01 2947.83 1227.25C2947.83 1227.25 2995.73 1370.89 2950.25 1527.69L2938.5 1587.1C2938.5 1587.1 3145.93 1671.14 3111.37 1379.05C3152.22 1345.49 3081.16 1058.28 3081.16 1058.28L2873.66 1061Z" fill="#DB3752"/>
<path d="M2793.09 509.975C2793.09 509.975 2823.82 449.174 2889.84 455.69C2955.87 462.206 2948.27 579.418 2838.61 596.152C2728.96 612.881 2793.09 509.975 2793.09 509.975Z" fill="#F5B8A5"/>
<path d="M2845.55 501.708C2845.55 501.708 2861.73 481.042 2888.2 493.341C2914.67 505.641 2883.79 553.683 2855.35 560.199C2855.35 560.199 2877.41 533.737 2877.91 514.194C2878.4 494.639 2845.55 501.708 2845.55 501.708Z" fill="#EA9686"/>
<path d="M2648.58 549.927C2664.61 549.927 2677.61 539.134 2677.61 525.819C2677.61 512.505 2664.61 501.711 2648.58 501.711C2632.54 501.711 2619.55 512.505 2619.55 525.819C2619.55 539.134 2632.54 549.927 2648.58 549.927Z" fill="#0C426F"/>
<path d="M2656.66 502.759C2656.66 502.759 2676.19 505.001 2682.95 502.759C2694.14 499.05 2695.12 512.766 2664.92 514.263C2633.82 515.804 2656.66 502.759 2656.66 502.759Z" fill="#0C426F"/>
<path d="M2655.93 516.399C2655.93 516.399 2675.45 518.642 2682.22 516.399C2693.41 512.691 2694.39 526.407 2664.19 527.904C2633.09 529.444 2655.93 516.399 2655.93 516.399Z" fill="#0C426F"/>
<path d="M2476.34 549.927C2492.37 549.927 2505.37 539.134 2505.37 525.819C2505.37 512.505 2492.37 501.711 2476.34 501.711C2460.3 501.711 2447.3 512.505 2447.3 525.819C2447.3 539.134 2460.3 549.927 2476.34 549.927Z" fill="#0C426F"/>
<path d="M2468.25 502.759C2468.25 502.759 2448.73 505.001 2441.96 502.759C2430.77 499.05 2429.79 512.766 2459.99 514.263C2491.09 515.804 2468.25 502.759 2468.25 502.759Z" fill="#0C426F"/>
<path d="M2468.99 516.399C2468.99 516.399 2449.47 518.642 2442.71 516.399C2431.52 512.691 2430.54 526.407 2460.73 527.904C2491.84 529.444 2468.99 516.399 2468.99 516.399Z" fill="#0C426F"/>
<path d="M2738.86 381.466C2738.86 381.466 2696.02 560.193 2850.58 731.976C2922.59 812.003 2944.36 548.384 2931.98 484.055C2919.6 419.725 2804.26 309.408 2738.86 381.466Z" fill="#0C426F"/>
<path d="M2930.31 614.714C2907.38 654.662 2852.55 634.871 2806.73 515.89C2783.09 454.486 2788.3 398.107 2792.89 358.028C2773.41 357.357 2754.67 364.047 2738.86 381.465C2738.86 381.465 2696.01 560.193 2850.57 731.975C2895.08 781.44 2920.39 699.618 2930.31 614.714Z" fill="#0D3854"/>
</g>
<path d="M1980.89 1099.5H924.148V1770.1H1980.89V1099.5Z" fill="white"/>
<path fill-rule="evenodd" clip-rule="evenodd" d="M1980.89 1099.5H924.148V974.048C924.148 959.593 938.264 947.871 955.67 947.871H1949.37C1966.78 947.871 1980.89 959.593 1980.89 974.048V1099.5Z" fill="#0C426F"/>
<path d="M1006.52 1043.22C1019.51 1043.22 1030.05 1034.47 1030.05 1023.68C1030.05 1012.89 1019.51 1004.14 1006.52 1004.14C993.52 1004.14 982.984 1012.89 982.984 1023.68C982.984 1034.47 993.52 1043.22 1006.52 1043.22Z" fill="#EA445A"/>
<path d="M1108.49 1043.22C1121.49 1043.22 1132.03 1034.47 1132.03 1023.68C1132.03 1012.89 1121.49 1004.14 1108.49 1004.14C1095.5 1004.14 1084.96 1012.89 1084.96 1023.68C1084.96 1034.47 1095.5 1043.22 1108.49 1043.22Z" fill="#F7AC1F"/>
<path d="M1210.48 1043.22C1223.47 1043.22 1234.01 1034.47 1234.01 1023.68C1234.01 1012.89 1223.47 1004.14 1210.48 1004.14C1197.48 1004.14 1186.95 1012.89 1186.95 1023.68C1186.95 1034.47 1197.48 1043.22 1210.48 1043.22Z" fill="#D3C866"/>
<path d="M593.914 556.594C688.311 556.594 764.836 493.045 764.836 414.654C764.836 336.262 688.311 272.713 593.914 272.713C499.516 272.713 422.992 336.262 422.992 414.654C422.992 493.045 499.516 556.594 593.914 556.594Z" fill="#F7AC1F"/>
<path fill-rule="evenodd" clip-rule="evenodd" d="M716.4 399.516C711.657 374.489 697.587 353.704 674.713 337.062C656.401 323.738 635.053 315.7 610.959 312.718C608.035 312.358 605.095 312.084 602.163 311.768C596.68 311.768 591.197 311.768 585.714 311.768C582.385 312.147 579.041 312.494 575.72 312.917C551.073 316.048 529.53 324.663 511.114 338.547C490.626 354.002 477.266 373.023 472.277 395.665C465.358 427.053 474.424 455.292 498.742 479.916C517.652 499.067 542.015 511.236 571.382 515.703C607.855 521.25 641.007 514.255 670.15 495.278C695.246 478.941 710.513 457.46 716.16 431.346C716.871 428.066 717.26 424.749 717.806 421.45C717.806 416.897 717.806 412.344 717.806 407.79C717.335 405.032 716.916 402.268 716.4 399.516ZM588.975 375.29C588.983 386.403 588.96 397.522 589.005 408.629C589.013 409.921 588.736 410.542 586.918 410.53C571.681 410.474 556.444 410.499 541.214 410.492C540.818 410.492 540.421 410.443 539.524 410.387C539.771 406.281 539.651 402.312 540.302 398.429C541.85 389.248 543.773 380.104 545.523 370.942C545.717 369.91 546.196 369.376 547.587 369.625C560.85 372.004 574.307 373.041 587.838 373.482C588.145 373.488 588.452 373.6 588.855 373.681C588.893 374.246 588.975 374.768 588.975 375.29ZM574.075 326.459C578.914 323.154 584.696 320.874 588.803 320.694C588.803 335.453 588.803 350.2 588.803 365.078C581.061 365.494 557.267 363.276 548.552 361.288C550.789 356.766 552.801 352.207 555.262 347.827C559.84 339.702 565.607 332.242 574.075 326.459ZM563.76 323.477C552.203 333.925 545.052 346.368 539.546 359.642C529.291 357.356 519.514 354.462 509.985 350.262C524.945 336.95 542.763 328.074 563.76 323.477ZM502.901 357.269C514.293 360.934 525.267 364.463 536.524 368.078C532.238 381.638 529.934 395.82 529.523 410.356C513.141 410.356 496.834 410.356 480.154 410.356C481.298 390.552 488.891 372.78 502.901 357.269ZM502.916 471.946C488.958 456.653 481.395 438.856 480.131 418.841C496.73 418.841 512.992 418.841 529.5 418.841C529.949 433.278 532.171 447.478 536.532 461.15C525.394 464.728 514.413 468.256 502.916 471.946ZM510.112 478.91C519.499 474.779 529.216 471.903 539.516 469.586C545.044 482.792 552.12 495.272 563.909 505.621C551.597 505.422 521.534 490.501 510.112 478.91ZM588.811 508.888C586.664 508.292 584.622 507.857 582.699 507.174C576.431 504.931 571.412 501.316 567.066 497.017C558.389 488.439 553.018 478.444 548.769 467.797C562.039 465.411 575.286 464.386 588.811 464.051C588.811 478.928 588.811 493.675 588.811 508.888ZM588.968 454.336C588.968 454.727 588.863 455.118 588.788 455.653C584.091 455.907 579.423 455.982 574.8 456.435C566.026 457.305 557.252 458.299 548.522 459.454C546.391 459.734 545.8 459.386 545.321 457.703C541.805 445.36 539.95 432.855 539.643 420.183C539.636 419.792 539.718 419.394 539.771 418.885C540.444 418.835 541.065 418.742 541.686 418.742C556.676 418.736 571.674 418.748 586.664 418.717C588.145 418.717 589.027 418.823 589.02 420.4C588.938 431.712 588.975 443.024 588.968 454.336ZM677.877 350.25C668.452 354.468 658.645 357.3 648.824 359.555C645.346 353.17 642.107 346.802 638.434 340.615C634.724 334.36 629.772 328.763 624.139 323.52C645.106 328.061 662.879 336.969 677.877 350.25ZM648.211 408.834C648.218 409.294 648.158 409.753 648.113 410.418C631.672 410.418 615.5 410.418 599.111 410.418C599.111 398.156 599.111 385.956 599.111 373.575C603.681 373.333 608.266 373.259 612.792 372.805C621.731 371.911 630.647 370.861 639.549 369.737C641.389 369.501 642.017 369.761 642.466 371.321C646.019 383.657 647.881 396.162 648.211 408.834ZM599.088 320.359C601.213 320.949 603.27 321.384 605.192 322.073C612.568 324.738 618.163 329.217 622.958 334.447C630.363 342.522 635.203 351.654 639.062 361.351C630.086 363.314 606.568 365.494 599.096 365.071C599.088 350.331 599.088 335.571 599.088 320.359ZM598.871 420.661C598.871 419.425 599.006 418.705 600.899 418.711C616.136 418.767 631.365 418.742 646.595 418.748C647.059 418.748 647.53 418.841 648.345 418.922C648.113 422.91 648.226 426.873 647.575 430.749C646.026 439.937 644.104 449.074 642.369 458.231C642.152 459.38 641.598 459.846 640.117 459.585C627.416 457.305 614.542 456.224 601.572 455.814C600.779 455.789 599.986 455.721 599.073 455.665C599.014 455.025 598.909 454.51 598.909 453.994C598.886 442.881 598.909 431.768 598.871 420.661ZM615.26 501.732C611.004 504.882 606.217 507.298 600.629 508.478C600.18 508.571 599.709 508.596 599.058 508.677C599.058 493.793 599.058 479.04 599.058 464.045C612.583 464.386 625.778 465.418 639.347 467.84C637.088 472.4 635.068 476.879 632.674 481.208C628.418 488.929 622.98 496.011 615.26 501.732ZM624.087 505.757C635.636 495.309 642.795 482.873 648.3 469.586C658.563 471.866 668.332 474.773 677.862 478.966C662.909 492.284 645.084 501.154 624.087 505.757ZM684.953 471.946C673.471 468.256 662.565 464.753 651.337 461.15C655.601 447.639 657.912 433.464 658.331 418.91C674.69 418.91 690.99 418.91 707.693 418.91C706.548 438.719 698.941 456.516 684.953 471.946ZM658.376 410.399C657.86 395.969 655.721 381.725 651.3 368.084C662.52 364.488 673.493 360.965 684.953 357.288C698.963 372.724 706.511 390.521 707.723 410.399C691.162 410.399 674.922 410.399 658.376 410.399Z" fill="white"/>
<path d="M593.906 1337.42C688.304 1337.42 764.828 1273.87 764.828 1195.48C764.828 1117.09 688.304 1053.54 593.906 1053.54C499.509 1053.54 422.984 1117.09 422.984 1195.48C422.984 1273.87 499.509 1337.42 593.906 1337.42Z" fill="#D3C866"/>
<path d="M647.893 1218.41L631.504 1232.02L682.541 1274.41L698.931 1260.8C700.98 1259.09 700.973 1256.33 698.923 1254.63L655.329 1218.43C653.272 1216.72 649.95 1216.71 647.893 1218.41ZM490.152 1168.09C496.218 1191.7 531.487 1222.74 546.343 1234.98C561.064 1247.3 598.449 1276.59 626.874 1281.64C637.99 1283.58 661.328 1287.27 677.821 1277.68L627.211 1235.65C627.158 1235.69 627.113 1235.74 627.076 1235.78C622.132 1238.06 608.974 1240.36 586.047 1218.97C584.678 1217.83 583.459 1216.82 582.3 1215.85C569.382 1205.13 569.352 1205.1 569.352 1205.1C568.2 1204.14 566.98 1203.13 565.612 1202C539.865 1182.96 542.617 1172.02 545.37 1167.92C545.423 1167.89 545.475 1167.85 545.527 1167.81L494.924 1125.79C483.367 1139.47 487.818 1158.87 490.152 1168.09ZM515.248 1108.26L498.859 1121.87L549.888 1164.25L566.277 1150.64C568.327 1148.93 568.319 1146.17 566.277 1144.47L522.668 1108.26C520.626 1106.56 517.297 1106.56 515.248 1108.26Z" fill="white"/>
<path d="M593.906 998.169V587.41" stroke="#FFB800" stroke-width="3" stroke-miterlimit="10" stroke-linecap="round"/>
<path d="M1857.64 1222.23H1271.27V1243.4H1857.64V1222.23Z" fill="#0C426F"/>
<path d="M1857.64 1289.54H1271.27V1310.71H1857.64V1289.54Z" fill="#0C426F"/>
<path d="M1857.65 1356.86H1051.62V1378.03H1857.65V1356.86Z" fill="#0C426F"/>
<path d="M1857.65 1424.17H1051.62V1445.34H1857.65V1424.17Z" fill="#0C426F"/>
<path d="M1857.65 1491.48H1051.62V1512.65H1857.65V1491.48Z" fill="#0C426F"/>
<path d="M1857.65 1558.8H1051.62V1579.97H1857.65V1558.8Z" fill="#0C426F"/>
<path d="M1857.65 1626.12H1051.62V1647.29H1857.65V1626.12Z" fill="#0C426F"/>
<path d="M1193.8 1192.64H1051.62V1310.71H1193.8V1192.64Z" fill="#EA445A"/>
<path d="M812.367 414.66H2275.64" stroke="#FFB800" stroke-width="3" stroke-miterlimit="10" stroke-linecap="round"/>
<path d="M1239.31 841.481L1164.46 783.854C1158.21 779.04 1149.34 778.058 1142.01 780.736L1129.66 771.238C1145.95 754.659 1155.74 733.501 1155.74 710.436C1155.74 657.3 1103.86 614.215 1039.88 614.215C975.883 614.215 924 657.3 924 710.436C924 763.566 975.883 806.664 1039.88 806.664C1069.84 806.664 1097.16 797.21 1117.72 781.705L1130.62 791.619C1128.49 797.675 1130.39 804.465 1136.33 809.043L1211.18 866.677C1219.56 873.125 1232.65 872.715 1240.42 865.757C1248.18 858.8 1247.68 847.929 1239.31 841.481ZM1039.88 778.4C994.673 778.4 958.035 747.968 958.035 710.436C958.035 672.904 994.673 642.473 1039.88 642.473C1085.08 642.473 1121.72 672.898 1121.72 710.436C1121.72 747.975 1085.08 778.4 1039.88 778.4Z" fill="#D3C866"/>
<path d="M2536.85 1927.25H2664.98V1474" stroke="#FFB800" stroke-width="3" stroke-miterlimit="10" stroke-linecap="round"/>
<path d="M2014.54 1927.25H1051.62" stroke="#FFB800" stroke-width="3" stroke-miterlimit="10" stroke-linecap="round"/>
<path fill-rule="evenodd" clip-rule="evenodd" d="M2114.01 2040.06H2442.14C2470.02 2040.06 2492.62 2021.3 2492.62 1998.14V1856.35C2492.62 1833.2 2470.03 1814.42 2442.14 1814.42H2114.01C2086.14 1814.42 2063.53 1833.19 2063.53 1856.35V1998.14C2063.53 2021.3 2086.14 2040.06 2114.01 2040.06Z" fill="#F7AC1F"/>
<path fill-rule="evenodd" clip-rule="evenodd" d="M2201.98 2040.06L2139.52 2091.94V2040.06H2201.98Z" fill="#F7AC1F"/>
<path d="M2387.97 1946.66C2400.88 1946.66 2411.35 1937.97 2411.35 1927.24C2411.35 1916.52 2400.88 1907.83 2387.97 1907.83C2375.05 1907.83 2364.59 1916.52 2364.59 1927.24C2364.59 1937.97 2375.05 1946.66 2387.97 1946.66Z" fill="white"/>
<path d="M2278.07 1946.66C2290.98 1946.66 2301.45 1937.97 2301.45 1927.24C2301.45 1916.52 2290.98 1907.83 2278.07 1907.83C2265.16 1907.83 2254.69 1916.52 2254.69 1927.24C2254.69 1937.97 2265.16 1946.66 2278.07 1946.66Z" fill="white"/>
<path d="M2168.17 1946.66C2181.09 1946.66 2191.56 1937.97 2191.56 1927.24C2191.56 1916.52 2181.09 1907.83 2168.17 1907.83C2155.26 1907.83 2144.79 1916.52 2144.79 1927.24C2144.79 1937.97 2155.26 1946.66 2168.17 1946.66Z" fill="white"/>
<path fill-rule="evenodd" clip-rule="evenodd" d="M2236.26 274.51H1908.13C1880.25 274.51 1857.65 255.744 1857.65 232.586V90.7949C1857.65 67.6433 1880.25 48.8711 1908.13 48.8711H2236.26C2264.14 48.8711 2286.74 67.6371 2286.74 90.7949V232.586C2286.73 255.744 2264.14 274.51 2236.26 274.51Z" fill="#EA445A"/>
<path fill-rule="evenodd" clip-rule="evenodd" d="M2148.28 274.51L2210.75 326.385V274.51H2148.28Z" fill="#EA445A"/>
<path d="M2210.74 101.367H2022.38V116.027H2210.74V101.367Z" fill="white"/>
<path d="M2210.74 133.938H1933.62V148.597H2210.74V133.938Z" fill="white"/>
<path d="M2210.74 166.512H1933.62V181.172H2210.74V166.512Z" fill="white"/>
<path d="M2210.74 199.082H1933.62V213.742H2210.74V199.082Z" fill="white"/>
<path fill-rule="evenodd" clip-rule="evenodd" d="M593.903 769.791H560.594L577.245 745.838L593.903 721.885L610.554 745.838L627.205 769.791H593.903Z" fill="#0C426F"/>
<path fill-rule="evenodd" clip-rule="evenodd" d="M1803.3 414.659V387.004L1832.14 400.831L1860.98 414.659L1832.14 428.493L1803.3 442.32V414.659Z" fill="#0C426F"/>
<path fill-rule="evenodd" clip-rule="evenodd" d="M2664.97 1665.45H2698.28L2681.62 1689.4L2664.97 1713.35L2648.32 1689.4L2631.67 1665.45H2664.97Z" fill="#0C426F"/>
<path fill-rule="evenodd" clip-rule="evenodd" d="M1075.76 1927.24V1954.91L1046.91 1941.08L1018.07 1927.24L1046.91 1913.42L1075.76 1899.59V1927.24Z" fill="#0C426F"/>
<path fill-rule="evenodd" clip-rule="evenodd" d="M1512.67 754.896H1545.97L1529.32 778.849L1512.67 802.802L1496.02 778.849L1479.37 754.896H1512.67Z" fill="#0C426F"/>
<path d="M1221.07 670.924H1512.66V902.831" stroke="#FFB800" stroke-width="3" stroke-miterlimit="10" stroke-linecap="round"/>
<path d="M2796.97 484.487C2767.9 365.717 2833.89 274.769 2758.74 302.878C2677.08 333.422 2538.69 315.817 2538.69 315.817C2576.09 349.982 2709.49 342.733 2709.49 342.733C2709.49 342.733 2616.61 388.806 2490.69 373.792C2370.27 359.437 2397.39 301.331 2399.99 296.287C2367.39 340.087 2375.15 385.514 2436.41 404.497C2551.28 440.098 2738.86 381.458 2738.86 381.458C2738.86 381.458 2721.3 455.373 2796.97 484.487Z" fill="#0D3854"/>
</svg>
